<?xml version="1.0" standalone="no"?>
<!DOCTYPE svg PUBLIC "-//W3C//DTD SVG 20010904//EN"
 "http://www.w3.org/TR/2001/REC-SVG-20010904/DTD/svg10.dtd">
<svg version="1.0" xmlns="http://www.w3.org/2000/svg"
 width="300.000000pt" height="397.000000pt" viewBox="0 0 300.000000 397.000000"
 preserveAspectRatio="xMidYMid meet">
<metadata>
Created by potrace 1.10, written by Peter Selinger 2001-2011
</metadata>
<g transform="translate(0.000000,397.000000) scale(0.100000,-0.100000)"
fill="#000000" stroke="none">
<path d="M1345 3918 c-146 -20 -217 -59 -279 -152 -51 -77 -75 -153 -81 -255
-2 -47 -9 -104 -14 -126 -15 -59 -13 -166 4 -215 20 -55 19 -58 -8 -53 -44 9
-51 -17 -28 -102 30 -110 57 -157 104 -182 32 -17 68 -120 73 -208 l5 -80 -44
-70 -44 -70 -124 -50 c-68 -28 -142 -62 -164 -76 -22 -14 -92 -52 -157 -84
-64 -33 -114 -63 -112 -67 3 -4 -1 -5 -9 -2 -27 10 -115 -45 -208 -128 -50
-45 -97 -94 -104 -108 -14 -27 -65 -218 -65 -242 0 -7 9 6 20 30 10 23 23 42
29 42 5 0 12 18 16 40 7 41 11 45 39 34 11 -4 16 -19 16 -45 0 -37 -2 -39 -25
-33 -22 5 -25 3 -25 -19 0 -17 7 -28 21 -32 15 -5 19 -13 15 -28 -3 -12 -8
-41 -12 -64 -8 -51 -26 -55 -51 -13 -36 61 -60 17 -62 -112 -1 -27 -5 -48 -11
-48 -5 0 -10 -21 -10 -47 0 -27 -4 -66 -9 -88 -15 -69 -23 -205 -12 -205 5 0
12 8 16 19 4 13 13 17 33 15 l27 -4 -27 12 c-20 9 -26 17 -24 39 1 16 5 32 9
35 4 4 7 20 7 35 0 22 4 27 17 22 12 -5 14 -3 8 7 -13 21 -12 69 2 138 7 35
12 67 11 70 -3 27 4 72 11 72 5 0 19 -20 31 -44 13 -24 36 -59 52 -77 l30 -34
-15 30 c-9 17 -27 45 -41 64 -14 19 -26 39 -26 44 0 14 39 -3 67 -29 14 -13
29 -22 33 -19 4 3 20 -13 35 -35 15 -22 28 -40 29 -40 1 0 2 9 3 20 1 11 -7
25 -18 30 -10 6 -19 17 -19 25 0 8 -8 15 -18 15 -20 0 -64 29 -45 30 17 0 67
-23 75 -35 5 -6 14 -3 25 9 17 18 17 19 0 13 -10 -4 -34 2 -55 13 -20 11 -45
20 -54 20 -21 0 -21 0 -7 74 11 53 13 56 29 41 10 -9 21 -35 24 -58 5 -32 13
-46 35 -58 22 -13 28 -13 28 -3 0 8 -4 14 -9 14 -16 0 -41 71 -29 83 8 8 11 7
11 -3 0 -7 3 -10 7 -7 6 7 46 -32 71 -69 12 -18 13 -18 7 4 -15 63 -15 67 -1
37 9 -16 15 -40 16 -51 0 -23 16 -34 38 -27 6 3 9 10 6 16 -5 8 -2 8 7 0 7 -7
27 -13 44 -13 17 0 36 -5 43 -12 7 -7 12 -8 12 -2 0 6 10 10 22 8 13 -1 27 -3
31 -3 5 -1 5 -7 1 -13 -6 -10 -4 -10 7 -1 21 21 29 15 29 -20 0 -19 3 -37 7
-41 8 -8 6 -166 -3 -208 -3 -17 -1 -28 5 -28 6 0 11 19 11 44 0 23 3 71 6 105
6 50 10 61 23 59 9 -2 15 -11 15 -20 -1 -12 23 -22 104 -42 114 -27 144 -28
64 -2 l-50 17 25 25 c23 23 70 30 83 12 9 -11 64 -22 57 -11 -4 5 2 19 13 30
10 12 16 24 12 27 -3 4 0 4 9 1 10 -4 14 -17 13 -35 -1 -17 3 -33 9 -37 6 -3
7 -1 3 5 -4 7 -2 12 5 12 6 0 9 8 6 20 -5 20 17 48 27 32 3 -5 1 -26 -5 -46
-8 -27 -7 -41 2 -52 9 -11 8 -14 -5 -14 -11 0 -16 -9 -16 -33 0 -32 2 -33 31
-29 22 3 27 7 18 13 -11 7 -11 9 2 9 9 0 16 7 16 15 0 8 -4 15 -9 15 -5 0 -2
7 7 16 13 14 14 19 3 25 -10 7 -10 9 2 9 13 0 13 1 0 10 -12 8 -10 10 9 10 26
0 45 -18 67 -68 12 -26 12 -37 3 -48 -7 -8 -9 -30 -6 -54 l5 -40 -49 41 c-43
37 -50 40 -64 26 -16 -16 -4 -34 15 -22 6 3 30 -10 54 -30 27 -22 47 -32 51
-25 7 12 16 13 33 2 9 -6 -2 -34 -43 -109 -61 -112 -68 -120 -113 -129 -36 -7
-40 4 -24 61 10 33 6 55 -9 55 -6 0 -7 -4 -4 -10 3 -5 0 -10 -7 -10 -9 0 -9
-3 2 -10 11 -7 11 -10 2 -10 -7 0 -11 -4 -8 -9 4 -5 2 -11 -3 -13 -8 -2 -15
-25 -20 -70 -2 -11 -45 4 -58 19 -6 8 -15 15 -20 15 -4 0 -19 8 -32 16 -14 10
-51 17 -94 19 -45 1 -76 8 -87 18 -9 8 -24 15 -33 15 -11 0 -17 8 -17 23 0 32
10 40 29 23 25 -22 82 -35 134 -32 26 2 50 0 52 -5 5 -8 105 82 105 95 0 9
-32 42 -37 39 -11 -9 -23 0 -23 17 0 11 4 20 8 20 13 0 9 39 -4 44 -8 3 -16
-13 -23 -45 -6 -28 -11 -51 -11 -53 0 -2 18 -6 40 -10 22 -3 40 -10 40 -15 0
-5 -19 -16 -42 -26 -24 -9 -46 -22 -50 -28 -9 -15 -104 -9 -160 10 -58 20 -61
39 -18 93 17 21 30 43 30 48 0 6 15 22 33 36 27 21 45 26 90 26 31 0 58 -4 61
-9 3 -5 20 -14 36 -20 28 -9 29 -9 20 9 -6 11 -29 24 -53 30 -23 6 -46 12 -52
14 -15 4 -76 -13 -112 -32 -21 -10 -38 -30 -49 -57 -14 -34 -17 -37 -24 -20
-7 20 -7 20 -13 0 -7 -21 -10 -48 -22 -160 -4 -39 -10 -74 -13 -80 -3 -5 -6
-19 -7 -30 -1 -11 -2 -35 -3 -53 -1 -19 -6 -31 -12 -27 -12 7 -13 92 -2 99 5
3 7 19 4 36 -2 16 0 36 5 43 5 6 7 26 3 42 l-6 30 -8 -33 c-4 -18 -11 -30 -15
-27 -5 2 -11 -26 -15 -63 -4 -37 -8 -81 -10 -99 -3 -20 0 -31 7 -30 6 1 14
-11 18 -28 4 -16 7 -23 8 -15 1 12 4 11 12 -3 6 -9 15 -15 20 -11 5 3 16 0 24
-6 8 -6 23 -9 35 -5 12 4 20 2 20 -6 0 -8 3 -9 13 0 20 16 70 7 105 -18 17
-11 35 -21 40 -21 5 0 13 -7 16 -16 4 -9 9 -14 13 -11 3 4 12 2 20 -4 7 -6 13
-8 13 -3 0 5 4 2 10 -6 11 -17 19 -11 25 20 3 13 8 26 13 29 4 3 8 20 9 36 0
17 3 39 7 50 22 80 21 79 66 92 24 7 45 11 48 9 2 -2 -8 -22 -22 -44 -14 -23
-46 -81 -71 -131 -25 -49 -51 -92 -58 -94 -7 -3 -5 -6 6 -6 10 -1 20 5 23 13
3 9 12 12 21 9 11 -4 14 -2 9 5 -4 7 -1 15 8 18 8 3 12 12 9 20 -3 9 12 3 38
-14 24 -17 47 -28 51 -26 17 11 6 26 -30 42 -26 12 -36 22 -34 34 4 23 10 22
47 -2 38 -25 55 -25 48 0 -3 11 -8 18 -12 16 -3 -2 -22 5 -41 15 -19 11 -30
19 -24 19 7 0 17 15 24 33 7 17 17 42 22 54 6 11 7 26 4 32 -4 6 -2 11 5 11 7
0 9 3 6 7 -4 3 -3 11 2 17 5 6 32 56 61 111 28 55 58 105 66 111 23 19 58 115
57 160 0 51 -22 96 -48 100 -11 2 -25 10 -31 18 -6 9 -16 16 -22 16 -11 0 -25
-30 -17 -38 3 -3 5 1 5 8 0 10 4 10 18 -2 9 -9 27 -19 39 -22 29 -9 59 -96 43
-125 -13 -25 -10 -25 -59 -5 -25 10 -41 24 -45 38 -7 28 -67 96 -85 96 -7 0
-9 -5 -6 -10 3 -6 -1 -10 -9 -10 -22 0 -20 26 4 43 11 8 17 17 13 20 -3 4 -1
7 6 7 7 0 9 4 6 10 -3 5 -2 10 4 10 13 0 25 37 24 78 0 17 4 32 8 32 5 0 8 3
7 8 -2 4 6 44 16 90 l20 83 -26 25 -25 26 -7 -39 c-4 -21 -9 -46 -12 -55 -3
-12 0 -18 9 -18 13 0 13 -5 4 -30 -12 -32 -27 -40 -27 -15 0 8 5 15 11 15 5 0
2 13 -8 30 -9 17 -25 30 -34 30 -10 0 -30 11 -46 24 -44 36 -109 75 -140 82
-25 7 -27 6 -14 -9 7 -9 17 -14 22 -11 5 3 9 0 9 -5 0 -6 8 -11 18 -11 11 0
24 -12 30 -26 7 -14 16 -23 21 -19 5 3 22 -6 38 -20 27 -25 27 -25 3 -13 -14
7 -28 17 -31 21 -3 5 -8 8 -10 7 -2 -1 -16 3 -30 9 -15 5 -43 13 -63 17 -43 8
-63 36 -48 68 11 23 35 177 28 183 -2 2 -9 -26 -16 -64 -15 -95 -22 -103 -57
-77 -32 24 -33 43 -11 140 20 81 27 92 45 69 8 -12 13 -14 13 -6 0 11 3 11 15
1 8 -7 15 -21 15 -31 0 -10 4 -20 9 -24 6 -3 6 6 1 24 -14 49 17 27 45 -33 29
-60 55 -90 110 -131 22 -16 52 -40 67 -54 15 -13 31 -22 34 -18 4 4 2 60 -5
124 -6 65 -13 150 -15 189 -2 39 -6 76 -10 82 -3 5 -2 12 3 14 6 2 3 26 -5 58
-8 30 -17 90 -21 133 -6 72 -5 78 14 83 15 4 20 15 21 41 1 19 6 41 11 47 6 7
6 17 1 26 -13 21 -12 30 3 26 6 -1 9 -1 5 1 -5 3 -8 14 -8 24 0 19 -28 90 -50
131 -6 10 -10 24 -10 32 0 8 -9 18 -21 21 -13 4 -18 12 -15 21 3 8 2 12 -3 9
-5 -3 -13 4 -16 16 -4 11 -16 30 -26 40 -19 19 -19 19 -19 0 0 -11 6 -22 13
-24 7 -4 8 -6 1 -6 -17 -1 -31 19 -38 56 -8 35 12 58 21 24 7 -29 23 -16 23
19 0 37 -16 47 -41 24 -18 -16 -19 -16 -19 6 0 16 4 20 15 16 20 -7 19 3 -2
26 -15 17 -15 18 5 18 11 0 23 -8 26 -17 3 -10 3 18 0 62 -3 44 -6 93 -5 108
0 17 -4 25 -10 21 -7 -4 -7 1 0 15 7 11 9 21 5 21 -3 0 -1 6 5 14 7 8 9 25 5
40 -3 14 -3 34 1 43 4 10 9 29 11 42 1 13 11 32 20 42 9 10 14 19 9 19 -4 0 7
10 26 23 41 27 112 57 138 57 24 0 46 25 31 35 -7 4 -17 2 -23 -4 -6 -6 -26
-11 -45 -11 -19 0 -31 -4 -27 -10 3 -6 -1 -7 -9 -4 -9 3 -16 2 -16 -4 0 -5
-10 -12 -23 -16 -12 -3 -32 -14 -44 -25 -27 -25 -37 -16 -16 15 14 22 14 24 0
18 -14 -5 -14 -2 -4 20 7 14 15 26 19 26 4 0 5 7 1 16 -7 18 16 66 28 58 5 -3
6 3 2 12 -4 12 -3 15 5 10 7 -4 12 -1 12 8 0 9 9 25 20 36 11 11 20 24 20 30
0 5 8 7 18 3 9 -3 14 -3 10 2 -11 12 42 53 62 48 9 -3 24 3 33 12 20 20 27 20
38 3 5 -7 9 -8 9 -3 0 6 8 11 18 12 9 0 34 3 54 5 20 3 57 2 82 -2 25 -4 43
-3 40 1 -2 4 10 7 27 7 17 -1 33 -7 36 -14 3 -8 10 -11 15 -8 6 4 14 0 19 -7
7 -11 9 -10 9 4 0 14 4 16 18 9 9 -5 23 -7 30 -5 7 3 19 -3 26 -12 7 -10 18
-15 24 -11 7 4 12 2 12 -3 0 -6 5 -11 10 -11 16 0 105 -92 118 -122 6 -16 15
-28 20 -28 5 0 8 -10 7 -22 -1 -13 2 -31 7 -41 10 -20 2 -57 -13 -57 -5 0 -19
9 -31 20 -12 10 -24 17 -28 15 -4 -2 -38 7 -76 21 -68 24 -150 37 -231 37 -24
0 -43 3 -43 7 0 3 -6 7 -14 7 -8 0 -12 -6 -9 -13 3 -8 8 -13 11 -12 4 0 9 0
12 -2 3 -1 31 -2 63 -3 31 -1 57 -4 57 -7 0 -3 21 -6 46 -7 50 -3 134 -30 134
-44 0 -5 7 -5 17 -2 12 5 14 3 8 -8 -4 -8 -5 -11 0 -7 4 4 15 2 23 -5 13 -10
14 -9 7 3 -5 8 6 3 25 -11 42 -32 72 -83 70 -118 -1 -14 -1 -28 -1 -31 2 -6
10 -82 20 -185 7 -72 8 -77 19 -53 14 33 -10 424 -28 458 -6 11 -8 25 -4 31 3
6 -3 23 -13 38 -11 14 -23 36 -27 49 -15 45 -152 163 -170 145 -3 -4 -6 -1 -6
5 0 7 -11 12 -24 12 -14 0 -36 4 -49 9 -35 13 -211 19 -282 9z m-302 -1032 c3
-8 0 -17 -8 -19 -15 -7 -25 1 -25 20 0 17 26 17 33 -1z m55 -483 c-1 -5 4 -40
11 -79 8 -39 11 -86 7 -105 -7 -40 -7 -30 -3 -144 2 -50 6 -95 8 -100 10 -18
10 -91 1 -77 -5 7 -13 12 -18 10 -5 -2 -25 9 -45 25 -20 15 -41 27 -46 27 -11
0 -27 29 -25 43 1 4 -3 7 -9 7 -5 0 -7 5 -4 10 3 6 2 10 -3 10 -24 0 -35 81
-16 112 4 6 3 8 -3 5 -7 -4 -10 23 -8 78 1 74 4 88 24 106 12 12 28 22 34 23
7 1 30 14 52 28 46 31 46 31 43 21z m-188 -147 c0 -35 3 -71 6 -80 5 -12 -1
-16 -23 -16 -37 0 -93 19 -93 31 0 5 6 9 13 9 7 0 13 17 15 44 2 35 -2 45 -15
49 -11 3 -6 5 12 7 17 1 39 5 50 10 34 14 35 12 35 -54z m-105 -13 c-3 -21
-11 -42 -16 -47 -5 -6 -9 -13 -9 -18 0 -10 68 -28 106 -28 23 0 33 -5 37 -20
7 -26 -9 -35 -36 -22 -12 5 -38 17 -57 26 -19 9 -46 24 -60 34 -24 16 -24 16
-11 -1 7 -9 9 -17 4 -17 -5 0 -10 -10 -10 -22 -3 -40 -34 -108 -49 -108 -12 0
-13 -10 -8 -52 7 -52 7 -53 -13 -35 -11 9 -32 17 -46 17 -15 0 -27 2 -27 3 0
2 10 24 23 48 17 32 31 46 53 50 16 4 21 7 11 8 -11 1 -16 6 -11 14 5 9 4 9
-6 0 -7 -6 -19 -9 -27 -6 -12 5 -12 7 -1 15 14 10 4 8 -34 -7 -14 -5 -18 -2
-18 14 0 12 -4 21 -10 21 -5 0 -10 -6 -10 -14 0 -8 -6 -16 -12 -19 -7 -2 -5
-3 5 -1 9 1 21 -5 26 -13 6 -11 10 -12 15 -4 4 6 11 11 17 11 16 0 10 -23 -12
-46 -11 -12 -21 -31 -22 -42 -1 -24 -36 -37 -51 -19 -6 7 -20 20 -30 27 -19
15 -19 14 -2 -17 9 -19 27 -35 42 -39 24 -6 25 -9 22 -68 l-3 -61 -92 1 c-51
0 -93 -3 -93 -7 0 -11 53 -21 97 -19 91 4 84 16 77 -127 -4 -71 -8 -130 -10
-132 -5 -6 -138 21 -150 30 -6 5 -9 22 -6 38 3 20 -4 41 -22 67 -28 42 -35 36
-11 -10 9 -16 13 -31 10 -35 -5 -5 -114 50 -143 72 -6 5 -12 30 -12 55 0 25 3
42 7 39 3 -4 12 -2 19 4 11 9 6 21 -21 62 -36 53 -36 58 4 105 27 31 37 28 12
-4 -21 -27 -19 -56 4 -48 17 7 55 -13 55 -29 0 -7 11 -39 25 -72 l24 -60 -22
-17 c-17 -13 -18 -18 -6 -18 8 0 28 13 43 29 26 27 27 31 13 45 -9 9 -19 16
-24 16 -9 0 -31 57 -40 101 -3 19 1 30 15 41 11 8 24 27 27 43 13 57 16 62 26
37 5 -14 5 -31 -1 -41 -10 -20 5 -91 19 -91 4 0 16 18 26 40 20 45 41 54 31
14 -15 -60 31 -120 85 -112 36 5 37 42 2 77 -42 42 -53 58 -53 76 0 16 -12 20
-24 8 -3 -4 -15 -8 -26 -10 -14 -2 -20 3 -20 18 0 33 -18 59 -37 52 -11 -4
-14 -3 -9 5 4 7 15 12 26 12 10 0 20 7 24 15 3 9 18 15 40 15 26 0 34 4 30 14
-6 15 29 32 57 27 9 -1 19 5 22 13 4 9 14 12 27 9 17 -5 21 -12 18 -34 -3 -15
-1 -26 4 -23 4 3 8 16 8 30 0 13 5 24 11 24 5 0 8 4 5 9 -3 5 6 11 19 14 14 2
28 0 32 -6 3 -5 10 -3 15 7 5 9 22 16 38 16 17 0 30 5 30 11 0 11 -30 9 -77
-6 -17 -6 -23 -3 -23 8 0 9 5 19 10 22 6 3 10 -1 10 -11 0 -13 3 -14 14 -5 8
7 28 13 45 13 27 1 31 5 31 30 0 15 5 28 11 28 8 0 9 -13 4 -37z m-1 -128 c3
-13 -1 -54 -10 -92 -32 -144 -32 -145 -18 -139 7 3 16 1 20 -5 3 -6 17 -14 30
-19 27 -10 33 -47 10 -56 -20 -8 -56 13 -56 32 0 8 -7 17 -15 20 -8 4 -15 14
-15 24 0 11 -4 22 -10 25 -5 3 -10 3 -10 -2 0 -4 -3 -18 -6 -29 -4 -16 0 -23
14 -26 11 -3 25 -15 32 -28 11 -21 11 -21 -14 -5 -24 16 -28 16 -51 1 -28 -18
-32 -11 -10 18 8 11 15 30 15 43 0 13 7 37 14 52 8 15 13 37 10 48 -3 10 4 44
15 74 12 30 21 64 21 76 0 29 26 20 34 -12z m-191 -189 c3 -8 19 -17 36 -21
17 -4 33 -10 35 -14 10 -15 -17 -81 -33 -82 -9 0 -26 -2 -38 -3 -22 -3 -23 1
-23 66 0 63 10 87 23 54z m-436 -76 c-6 -22 -15 -36 -19 -32 -12 12 2 72 17
72 9 0 10 -9 2 -40z m593 -65 c13 -14 32 -25 43 -25 14 0 17 -5 12 -17 -3 -10
-9 -30 -12 -45 -6 -33 -10 -34 -35 -11 -15 13 -21 14 -31 4 -9 -10 -6 -17 17
-36 l29 -23 -23 -54 c-12 -29 -26 -55 -30 -58 -12 -8 -30 -71 -30 -103 l0 -30
-25 23 c-25 23 -33 68 -19 104 5 13 10 14 20 5 7 -6 19 -9 26 -6 8 3 1 9 -15
16 -20 8 -27 16 -23 29 3 9 12 56 21 105 8 48 18 95 21 105 4 11 -1 8 -15 -8
-11 -14 -19 -31 -16 -37 2 -7 -3 -13 -13 -13 -13 0 -14 -2 -3 -9 9 -6 11 -16
5 -32 -4 -13 -7 -30 -5 -38 1 -7 -2 -10 -7 -7 -6 3 -8 -2 -5 -13 3 -10 -1 -29
-7 -41 -8 -15 -8 -20 -1 -16 6 4 11 1 11 -6 0 -17 -39 -34 -68 -30 l-23 4 7
126 c4 70 8 128 9 130 2 2 25 5 53 7 28 2 59 8 69 14 27 16 37 13 63 -14z
m156 -42 c27 -9 65 -29 84 -45 19 -15 38 -28 43 -28 18 0 77 -53 77 -70 0 -27
-90 -20 -121 9 -13 12 -60 33 -105 47 l-81 24 10 40 c13 46 21 48 93 23z m179
-43 c-3 -5 1 -10 9 -10 9 0 16 -9 16 -20 0 -18 -1 -18 -30 -2 -27 15 -28 18
-13 30 20 15 26 15 18 2z m-125 -97 c24 -14 30 -23 25 -40 -3 -12 -1 -25 5
-28 6 -3 7 1 4 9 -8 21 13 20 62 0 22 -9 40 -17 42 -18 5 -6 -21 -66 -28 -66
-19 0 -66 22 -85 41 -37 35 -83 69 -95 69 -6 0 -10 -11 -8 -27 2 -22 9 -29 33
-33 34 -6 110 -44 120 -61 12 -19 -2 -21 -34 -5 -41 22 -51 20 -51 -8 0 -51
-8 -57 -48 -36 -49 27 -80 26 -91 -3 -16 -40 -36 -50 -76 -37 -21 7 -35 18
-35 28 0 30 20 95 47 152 14 30 32 69 39 86 l13 32 65 -19 c36 -9 79 -26 96
-36z m298 -360 c26 -6 26 -8 4 -50 -17 -31 -18 -31 -49 -18 -34 15 -40 33 -22
66 7 14 16 18 27 13 9 -3 27 -9 40 -11z m-562 -294 c36 -25 48 -28 60 -19 21
18 101 6 133 -19 14 -12 34 -24 44 -28 13 -4 16 -11 11 -27 -9 -29 -11 -31
-27 -18 -8 7 -16 10 -19 7 -3 -3 -64 15 -135 40 -123 44 -130 48 -125 71 2 13
6 24 9 24 2 0 25 -14 49 -31z m46 -75 c85 -29 86 -29 81 -58 -4 -21 -3 -27 5
-22 7 4 12 14 12 22 0 13 8 14 43 9 23 -4 45 -9 48 -11 3 -2 0 -29 -7 -61 -7
-32 -13 -60 -13 -63 -1 -2 -18 12 -38 31 -56 51 -95 69 -145 68 -24 -1 -58 1
-77 6 -32 7 -33 9 -27 44 3 20 6 44 6 54 0 11 5 17 13 14 6 -3 51 -18 99 -33z"/>
<path d="M419 1718 c0 -18 -2 -45 -4 -61 -3 -26 14 -45 40 -42 26 2 55 41 55
73 0 18 -4 31 -10 27 -5 -3 -7 -11 -4 -18 2 -7 -3 -21 -12 -32 -8 -11 -12 -14
-8 -6 5 9 3 12 -5 7 -6 -4 -9 -11 -6 -16 3 -4 -2 -13 -9 -19 -8 -7 -16 -8 -18
-4 -9 17 -8 72 2 97 7 21 6 26 -5 26 -10 0 -15 -11 -16 -32z"/>
<path d="M532 1706 c-12 -42 -9 -57 9 -39 6 6 9 26 7 44 l-4 34 -12 -39z"/>
<path d="M527 1643 c-4 -3 -7 -24 -7 -46 0 -51 10 -43 15 12 4 42 3 46 -8 34z"/>
<path d="M765 1510 c-3 -5 1 -10 9 -10 9 0 16 -4 16 -8 0 -4 8 -8 18 -9 24 -2
61 -10 98 -21 17 -6 37 -6 44 -2 9 5 -11 15 -56 28 -103 30 -122 33 -129 22z"/>
<path d="M1380 3652 c0 -4 -17 -8 -37 -8 -69 -2 -83 -4 -83 -13 0 -10 103 -7
120 4 5 3 15 3 20 0 6 -3 15 -3 21 1 8 4 7 9 -2 15 -17 11 -39 12 -39 1z"/>
<path d="M1200 3298 c0 -4 -12 -9 -27 -11 -23 -3 -21 -4 10 -6 20 0 37 -5 37
-11 0 -5 13 -10 28 -10 15 0 33 -5 39 -11 7 -7 17 -8 29 -1 11 5 24 8 30 5 6
-2 11 3 11 12 0 8 -5 15 -10 15 -6 0 -8 2 -5 5 10 10 37 -7 32 -20 -3 -7 -1
-16 5 -20 12 -7 14 8 5 40 -5 19 -13 21 -95 20 -49 0 -89 -3 -89 -7z"/>
<path d="M1590 3300 c-13 -8 -12 -10 3 -10 10 0 15 -5 12 -10 -9 -14 35 -29
65 -22 14 3 42 6 62 6 25 0 35 3 28 10 -16 16 -12 30 5 16 10 -9 15 -9 15 -1
0 6 -3 11 -7 12 -5 0 -18 2 -30 3 -13 2 -23 -1 -23 -5 0 -7 -48 -5 -90 5 -14
3 -32 2 -40 -4z"/>
<path d="M1546 3211 c5 -11 3 -13 -12 -8 -18 7 -18 6 1 -8 11 -8 25 -19 32
-24 8 -7 15 -5 25 6 10 13 10 15 0 9 -8 -5 -20 1 -33 16 -11 13 -17 17 -13 9z"/>
<path d="M1663 3204 c-12 -3 -27 -11 -33 -19 -9 -11 -3 -11 28 2 48 19 100 12
134 -18 l23 -21 -25 7 c-88 23 -159 21 -176 -7 -5 -7 -2 -9 7 -6 49 18 59 19
59 4 0 -20 50 -22 68 -4 10 10 15 10 20 1 4 -6 36 -14 72 -17 36 -3 56 -3 45
0 -11 3 -27 8 -35 11 -8 3 -19 5 -23 4 -5 -1 -6 3 -3 8 18 28 -100 68 -161 55z"/>
<path d="M1185 3188 c-38 -21 -75 -57 -66 -63 14 -8 92 6 85 16 -3 5 0 9 5 9
6 0 11 -4 11 -9 0 -5 16 -9 35 -9 23 0 35 5 35 14 0 18 10 18 38 -2 12 -8 28
-14 35 -11 6 2 -1 11 -18 19 -36 18 -98 31 -91 19 3 -4 -5 -6 -18 -4 -12 3
-40 -3 -62 -12 -36 -15 -38 -15 -23 0 9 9 34 23 55 30 22 8 30 14 19 14 -11 0
-29 -5 -40 -11z"/>
<path d="M1370 3191 c0 -5 6 -21 14 -35 l14 -27 4 23 c2 13 3 29 0 36 -4 14
-32 17 -32 3z"/>
<path d="M1411 3113 c-12 -14 -24 -37 -27 -50 -4 -16 -18 -26 -45 -34 -39 -12
-75 -42 -81 -69 -2 -8 -7 -18 -13 -22 -14 -10 1 -22 20 -15 8 4 15 17 15 30 0
13 10 32 22 43 21 19 21 19 15 -4 -9 -36 26 -66 68 -58 22 5 36 2 45 -9 16
-20 84 -20 100 0 9 11 22 14 42 10 33 -8 78 16 78 40 0 17 -11 19 -25 6 -14
-13 -67 -17 -84 -6 -11 6 -13 4 -8 -7 15 -40 -56 -51 -102 -17 -16 12 -34 19
-39 15 -16 -10 -62 12 -62 29 0 8 5 15 11 15 6 0 26 7 45 16 29 14 34 21 34
52 0 21 7 40 18 48 9 7 12 14 5 14 -6 0 -21 -12 -32 -27z"/>
<path d="M1530 3130 c0 -5 5 -10 10 -10 6 0 10 -11 10 -24 0 -18 -7 -26 -22
-29 l-23 -4 22 -2 c12 0 27 -10 33 -21 6 -11 20 -20 31 -20 26 0 56 -16 98
-52 18 -16 36 -27 39 -24 10 11 -42 58 -88 80 -34 16 -51 33 -70 69 -24 44
-40 60 -40 37z"/>
<path d="M1941 3127 c-15 -15 -14 -27 4 -27 17 0 20 -16 5 -25 -5 -3 -10 -11
-10 -16 0 -6 5 -7 10 -4 14 9 16 -11 5 -87 -4 -35 -10 -46 -21 -41 -7 3 -14 0
-14 -6 0 -6 6 -11 13 -11 8 0 7 -4 -3 -11 -11 -8 -12 -12 -2 -16 20 -8 14 -33
-8 -33 -17 0 -20 6 -18 35 3 44 -8 56 -16 16 -3 -17 -9 -44 -12 -61 -3 -16
-10 -30 -15 -30 -6 0 -8 -4 -4 -9 3 -5 1 -12 -4 -15 -9 -6 -71 -129 -71 -142
0 -4 -8 -16 -17 -27 -13 -15 -14 -18 -3 -12 30 19 40 14 23 -12 -11 -17 -13
-27 -6 -31 6 -4 9 -22 7 -41 -3 -22 2 -41 12 -52 16 -17 15 -58 0 -136 -3 -16
-1 -20 9 -16 8 2 14 8 13 11 0 4 3 21 7 39 7 29 9 31 29 21 11 -6 27 -18 34
-27 11 -13 11 -12 2 7 -7 13 -10 26 -7 28 8 8 57 -49 55 -64 -2 -8 4 -17 12
-19 13 -4 13 -3 0 6 -8 6 -10 11 -4 11 11 0 44 -32 44 -43 0 -4 -6 -7 -14 -7
-8 0 -18 -5 -22 -12 -5 -8 -2 -9 12 -4 44 18 74 24 74 15 0 -5 -6 -9 -14 -9
-11 0 -14 -12 -11 -55 2 -31 -1 -53 -6 -49 -12 7 -11 -7 1 -26 7 -11 12 -12
21 -3 9 9 9 20 0 44 -15 44 -14 53 5 35 8 -9 12 -21 8 -27 -4 -8 -3 -9 4 -5 7
4 10 2 6 -7 -2 -7 1 -14 8 -14 7 0 20 -3 28 -7 8 -3 21 -2 28 3 11 6 7 19 -19
60 -22 37 -35 49 -42 42 -6 -6 -18 -11 -26 -11 -12 0 -10 3 4 13 27 17 122 13
160 -7 17 -9 36 -16 43 -16 6 0 12 -4 12 -10 0 -13 -6 -13 -31 1 -19 10 -20 9
-8 -13 11 -20 11 -22 -3 -10 -13 10 -17 10 -22 0 -3 -7 -3 -3 -1 9 3 12 1 24
-5 28 -10 6 -14 -7 -11 -32 3 -21 -6 -15 -26 17 -11 17 -23 26 -30 22 -9 -5
-6 -16 9 -40 15 -25 24 -30 36 -23 14 8 25 -6 64 -77 26 -48 48 -92 48 -97 0
-10 -99 -61 -104 -53 -21 32 -91 154 -89 158 1 3 -7 6 -18 7 -17 2 -17 -2 7
-50 14 -29 37 -63 49 -77 28 -29 43 -80 25 -80 -6 0 -23 9 -37 20 -14 11 -51
25 -83 31 -51 10 -60 15 -69 39 -9 27 -8 28 35 39 27 7 42 16 38 22 -3 6 -12
8 -19 5 -7 -2 -21 2 -32 9 -21 17 -37 19 -28 5 3 -5 1 -10 -4 -10 -6 0 -11 -7
-11 -15 0 -8 -5 -15 -12 -15 -7 0 -5 -6 4 -17 21 -24 32 -63 19 -63 -6 0 -18
11 -27 25 -20 31 -23 31 -54 -8 l-25 -32 29 19 c26 16 28 17 23 2 -4 -9 -3
-15 2 -12 16 10 69 -15 85 -40 16 -23 15 -24 -19 -38 -19 -8 -62 -20 -96 -27
-37 -7 -56 -15 -48 -20 7 -4 20 -4 28 0 9 5 36 11 60 15 24 4 57 16 72 27 24
17 27 23 19 45 -9 22 -8 25 9 19 11 -3 29 -8 42 -10 24 -5 39 -15 21 -15 -7 0
-12 -4 -12 -8 0 -5 13 -7 29 -4 24 3 34 -3 66 -42 21 -26 40 -44 43 -41 3 2
10 -5 17 -18 7 -12 21 -38 32 -57 16 -29 56 -156 55 -175 -1 -2 3 -18 8 -35 5
-18 5 -32 -1 -36 -6 -3 -8 -12 -5 -19 4 -12 -21 -44 -27 -34 -22 40 -25 49
-17 54 6 4 6 10 0 18 -44 53 -51 60 -45 50 4 -9 -1 -13 -15 -13 -14 0 -19 4
-14 13 5 9 4 9 -6 0 -15 -14 -29 -3 -48 41 -7 16 -15 26 -19 23 -3 -4 -1 -12
4 -19 6 -7 13 -23 16 -36 5 -21 3 -23 -25 -17 -21 5 -28 4 -24 -4 4 -6 0 -11
-9 -11 -9 0 -26 -11 -38 -24 -24 -26 -78 -56 -100 -56 -13 0 -22 22 -33 80 -2
8 -12 42 -23 74 -25 70 -26 99 -6 116 9 7 13 15 10 18 -3 3 0 11 6 19 9 10 5
13 -22 12 -19 -1 -26 -3 -16 -6 19 -5 23 -38 6 -48 -15 -10 -19 -2 -21 39 -1
20 -6 36 -13 36 -7 0 -11 -15 -10 -37 2 -49 -3 -63 -24 -64 -11 0 -9 -3 7 -9
12 -5 22 -14 22 -20 0 -5 9 -10 20 -10 12 0 20 -7 20 -17 0 -13 -3 -14 -12 -5
-15 15 -52 16 -43 2 4 -6 10 -8 14 -6 4 3 8 0 9 -7 0 -7 3 -23 7 -37 4 -14 8
-34 9 -45 1 -11 6 -31 11 -45 5 -14 9 -32 9 -40 1 -8 8 -14 16 -12 11 3 12 0
4 -8 -12 -12 -7 -57 8 -66 5 -3 20 4 32 15 18 17 237 97 241 88 1 -1 7 -22 14
-46 7 -23 15 -49 18 -57 4 -11 -7 -14 -52 -14 -54 0 -60 -3 -97 -40 -49 -49
-66 -50 -70 -7 -2 19 -8 31 -15 29 -15 -2 -17 14 -3 23 17 11 11 25 -10 25
-11 0 -23 -6 -26 -14 -7 -18 -104 -40 -146 -32 -19 3 -56 20 -82 36 -25 17
-54 30 -62 30 -9 0 -14 3 -12 8 90 185 115 231 123 228 6 -1 10 -15 10 -29 -1
-16 5 -27 12 -27 7 0 13 6 13 14 0 8 3 22 7 32 5 13 3 16 -9 12 -34 -14 -36
13 -6 74 16 33 27 62 24 65 -3 4 2 12 12 20 9 8 11 12 5 8 -12 -6 -18 7 -13
30 1 5 -2 6 -6 2 -4 -4 -9 -15 -10 -24 -3 -16 -34 -83 -44 -93 -3 -3 -6 -16
-8 -30 -3 -31 -43 -90 -55 -83 -5 3 -6 -4 -2 -17 5 -14 3 -20 -3 -16 -6 4 -8
-2 -5 -14 3 -12 -1 -22 -11 -26 -9 -3 -13 -10 -10 -15 7 -11 -21 -51 -29 -42
-4 3 -7 1 -7 -5 0 -7 4 -12 9 -12 5 0 -4 -25 -19 -55 -30 -58 -30 -59 -30 -76
0 -5 -4 -7 -10 -4 -5 3 -10 0 -10 -8 0 -8 -15 -43 -33 -78 -18 -35 -39 -80
-47 -99 -7 -19 -24 -47 -36 -62 -12 -15 -37 -59 -55 -98 -18 -38 -40 -70 -47
-70 -10 0 -12 6 -7 18 17 39 16 51 -4 71 -25 25 -54 27 -72 4 -13 -15 -12 -15
7 -5 16 9 26 8 42 -4 26 -18 29 -52 6 -61 -14 -5 -13 -9 7 -24 21 -16 23 -21
13 -47 -10 -25 -9 -29 5 -26 18 5 28 -1 56 -35 16 -18 20 -38 21 -100 0 -42 4
-88 8 -103 7 -24 4 -30 -26 -48 -18 -11 -44 -20 -57 -20 -37 0 -87 39 -110 87
-18 38 -19 44 -6 50 9 3 22 17 30 32 12 25 12 27 -8 28 -17 2 -19 0 -7 -7 12
-7 12 -12 2 -22 -7 -7 -18 -13 -24 -13 -6 0 -14 -7 -19 -15 -4 -8 -18 -33 -31
-55 -12 -22 -21 -46 -20 -53 2 -10 -3 -12 -19 -7 -22 7 -22 7 -6 -9 13 -14 14
-21 5 -36 -7 -10 -16 -16 -22 -13 -5 3 -6 1 -2 -5 7 -13 -23 -72 -36 -72 -4 0
-8 -9 -8 -20 0 -11 -4 -20 -10 -20 -5 0 -13 -12 -16 -26 -4 -15 -15 -35 -26
-46 -10 -10 -16 -23 -13 -27 2 -5 -2 -14 -10 -21 -8 -7 -15 -18 -15 -25 0 -7
-6 -18 -14 -24 -7 -6 -17 -26 -20 -44 -6 -29 -8 -30 -20 -14 -12 16 -14 16
-20 1 -3 -8 -6 -24 -6 -35 0 -28 -17 -23 -25 9 l-8 27 -7 -35 c-15 -72 -19
-110 -9 -105 5 4 9 -3 9 -14 0 -49 29 -12 90 114 63 131 85 160 96 130 4 -8
10 -12 15 -9 6 3 15 1 22 -4 7 -6 23 -12 36 -14 29 -4 34 -28 14 -68 -15 -31
-37 -42 -26 -13 4 11 3 14 -5 9 -7 -4 -12 -12 -12 -17 0 -18 -53 -89 -66 -89
-28 0 -20 106 11 140 24 26 55 26 55 0 0 -19 1 -19 19 -3 11 9 17 21 14 26 -3
5 -9 3 -14 -4 -6 -11 -9 -10 -15 4 -11 30 -74 18 -74 -14 0 -10 -6 -18 -13
-17 -8 2 -13 -14 -15 -51 -4 -68 4 -101 24 -101 11 0 13 -6 9 -20 -4 -11 -2
-20 4 -20 6 0 10 3 9 8 -2 13 19 56 40 80 12 13 23 29 25 35 3 7 14 0 26 -15
16 -20 32 -28 53 -28 30 0 30 -1 24 -40 -4 -25 -2 -40 4 -40 5 0 10 18 10 40
0 22 5 40 10 40 15 0 25 -4 24 -10 -10 -42 -12 -70 -4 -70 6 0 10 13 10 30 0
17 5 30 10 30 6 0 10 -15 10 -32 1 -30 2 -31 14 -15 8 11 12 34 10 57 -3 38
17 96 29 83 11 -10 8 7 -3 20 -54 66 -59 74 -48 85 13 13 2 32 -20 32 -12 0
-13 3 -5 11 7 7 20 8 34 3 27 -10 34 -10 109 -13 l55 -1 19 -45 18 -45 -27
-68 c-33 -80 -46 -132 -34 -132 5 0 14 21 20 46 l12 47 66 -7 c36 -3 86 -6
111 -7 25 0 38 -3 30 -6 -27 -10 -49 -35 -43 -49 7 -18 33 -18 60 1 20 14 22
14 26 -7 l4 -23 2 23 c2 35 21 51 48 39 13 -6 23 -16 23 -24 0 -17 -10 -16
-32 4 -10 9 -18 11 -18 6 0 -16 21 -30 53 -35 23 -5 27 -3 21 11 -3 9 -11 36
-15 61 -9 43 -8 46 23 72 18 15 46 28 61 28 24 0 31 -7 48 -46 20 -43 20 -48
4 -86 -9 -22 -13 -43 -9 -47 4 -3 8 -2 11 4 15 40 34 63 66 80 36 19 38 22 35
62 -3 41 -3 41 36 48 47 7 56 -3 56 -62 0 -39 2 -43 25 -43 27 0 45 -25 45
-64 0 -20 5 -26 23 -26 20 0 22 4 19 40 -2 22 -8 37 -13 34 -11 -6 -12 10 -1
20 4 4 7 13 7 19 0 10 41 26 110 41 l30 7 -3 -81 c-4 -68 -2 -80 12 -80 13 0
16 14 16 84 0 83 1 85 30 106 17 12 30 28 30 36 0 21 27 29 46 13 16 -13 96
-20 88 -8 -2 4 3 10 11 13 19 7 29 -15 23 -52 -3 -22 1 -31 17 -39 35 -16 64
1 63 36 -1 17 -5 31 -9 31 -4 0 -6 -9 -4 -20 7 -34 -28 -23 -46 15 l-16 33 43
11 c84 21 84 22 84 -71 l0 -83 -62 4 c-35 1 -65 6 -68 10 -3 4 -30 19 -60 33
-46 22 -57 24 -66 12 -19 -24 -26 -15 -20 29 5 36 4 38 -4 12 -9 -28 -8 -62 6
-163 4 -34 9 -42 26 -42 14 0 18 5 14 16 -3 9 -6 20 -6 25 0 6 -5 7 -11 3 -9
-5 -10 8 -7 45 3 28 8 55 12 58 13 13 27 -22 23 -57 -4 -38 10 -90 24 -90 5 0
7 15 6 33 -4 32 7 67 21 67 17 0 62 -49 62 -67 0 -28 10 -34 28 -17 13 14 12
19 -7 45 -13 17 -21 32 -19 34 1 1 26 1 54 -2 l51 -5 -5 -44 c-3 -29 -1 -44 7
-44 6 0 11 18 11 43 l0 43 78 -7 c42 -4 101 -14 130 -22 28 -9 52 -12 52 -7 0
15 -130 49 -195 52 l-60 2 -1 87 -2 87 100 -4 c55 -2 104 -6 109 -9 5 -4 9
-16 9 -27 0 -21 0 -21 20 -3 41 37 18 55 -77 58 -24 1 -43 5 -43 8 0 17 -34
18 -46 2 -13 -17 -13 -17 -14 0 0 22 -19 22 -27 -1 -6 -14 -8 -13 -14 8 -7 24
-7 24 -8 3 -1 -13 -6 -23 -12 -23 -6 0 -9 7 -5 15 7 19 -3 19 -18 0 -14 -19
-96 -32 -96 -16 0 22 -26 40 -75 52 -39 10 -49 9 -56 -2 -6 -11 5 -17 53 -27
70 -14 73 -15 65 -37 -7 -16 -47 -21 -47 -5 0 18 -18 11 -25 -10 -7 -21 -39
-27 -50 -10 -3 5 -1 10 4 10 16 0 13 26 -4 40 -9 7 -15 8 -15 2 0 -5 -12 -17
-26 -27 -22 -14 -28 -15 -35 -4 -6 10 -9 4 -9 -18 0 -40 -34 -68 -109 -89 -31
-9 -63 -18 -73 -20 -13 -4 -18 8 -28 64 -22 134 -28 187 -19 190 11 5 12 39 1
46 -5 3 -9 20 -10 38 -1 25 3 34 16 35 9 1 35 6 57 12 45 11 60 6 23 -8 -13
-5 -30 -16 -37 -25 -7 -9 -20 -16 -28 -16 -8 0 -11 -5 -8 -10 8 -12 123 -3
141 11 6 5 14 6 17 2 4 -3 7 -1 7 5 0 13 -13 16 -23 5 -4 -4 -26 -8 -50 -10
l-42 -4 20 20 c11 11 31 22 45 25 14 2 24 8 23 14 -1 5 7 8 17 5 11 -3 20 -10
20 -16 0 -5 8 -3 18 6 30 27 45 21 39 -13 -4 -17 -2 -30 3 -30 8 0 13 16 12
40 0 3 6 11 14 18 23 21 54 -41 55 -108 1 -58 4 -58 14 3 l6 38 48 -3 c27 -2
47 -6 44 -10 -2 -5 6 -7 19 -5 18 1 23 -3 22 -20 0 -13 3 -23 8 -23 4 0 8 5 8
10 0 6 7 10 15 10 11 0 14 7 9 24 -5 21 -1 25 26 31 17 4 33 5 35 3 3 -2 0
-21 -6 -41 -7 -25 -7 -43 1 -56 18 -35 11 -41 -25 -21 -45 26 -63 26 -40 0 10
-11 22 -17 26 -14 5 3 9 -1 9 -8 0 -7 11 -13 25 -13 14 0 25 5 25 12 0 9 13 7
45 -7 24 -10 47 -15 50 -11 4 7 -14 20 -35 26 -15 3 -63 34 -55 35 6 0 4 4 -4
9 -9 6 -11 15 -6 27 4 11 7 27 6 37 -2 15 3 18 30 13 18 -3 41 -15 51 -28 10
-13 18 -18 18 -11 0 22 -12 43 -26 43 -23 0 -52 36 -58 70 -2 17 -12 42 -20
56 -15 23 -15 24 3 24 44 0 79 -12 74 -26 -3 -8 0 -14 6 -14 6 0 11 7 11 15 0
16 10 19 26 8 5 -5 -1 1 -13 12 -16 15 -35 20 -69 19 -30 -1 -47 3 -51 12 -4
10 -8 11 -18 1 -11 -10 -11 -15 1 -27 16 -19 44 -84 44 -105 0 -11 -10 -15
-36 -15 -19 0 -42 -6 -49 -14 -12 -12 -28 -9 -107 18 -92 31 -93 31 -96 66 -2
19 3 43 10 53 13 17 16 16 53 -12 22 -17 45 -31 51 -31 6 0 16 -10 23 -23 7
-13 21 -28 32 -35 16 -11 19 -9 19 8 0 11 7 20 15 20 8 0 15 7 15 15 0 18 -9
19 -32 1 -10 -7 -14 -17 -10 -21 4 -5 2 -5 -5 -2 -6 4 -10 15 -9 24 2 10 -1
22 -6 28 -4 5 -18 23 -29 38 -25 33 -34 30 -20 -7 6 -14 7 -26 2 -26 -5 0 -11
7 -15 15 -3 9 -21 25 -41 36 -19 12 -32 25 -29 30 3 5 11 6 17 2 7 -4 7 0 -1
10 -10 11 -12 29 -7 57 6 33 4 40 -9 40 -12 0 -16 10 -16 43 0 38 4 46 26 56
24 11 26 10 21 -9 -3 -11 -1 -20 4 -20 5 0 9 8 9 19 0 10 10 30 21 45 12 15
22 40 24 55 1 15 4 32 8 37 5 10 12 103 9 134 -1 9 -15 24 -32 33 -26 16 -30
16 -30 3 0 -9 -4 -16 -10 -16 -9 0 -27 -75 -22 -93 4 -14 -18 -47 -32 -47 -18
0 -36 23 -41 52 -6 42 -16 131 -21 208 -3 41 -10 80 -15 86 -5 6 -7 31 -5 56
2 36 0 45 -10 41 -8 -3 -14 1 -14 10 0 8 -7 21 -17 28 -15 13 -15 12 -5 -7 6
-12 9 -24 6 -26 -2 -3 3 -33 12 -68 9 -34 14 -70 11 -80 -2 -9 0 -24 4 -33 5
-8 18 -75 29 -147 19 -132 29 -160 57 -160 10 0 12 -7 9 -20 -3 -11 -9 -29
-12 -40 -8 -31 -21 -24 -29 16 l-6 36 -24 -22 c-22 -21 -25 -21 -47 -6 -12 9
-32 16 -44 16 -16 0 -25 9 -33 32 -12 34 -3 48 30 48 20 0 93 30 87 35 -2 3
-32 -4 -67 -15 -45 -13 -63 -15 -66 -7 -3 7 -14 54 -25 106 -11 51 -25 101
-30 111 -5 9 -8 26 -7 38 1 20 2 20 19 5 10 -9 23 -31 30 -49 11 -32 28 -46
28 -25 0 6 15 7 33 4 23 -3 37 0 46 11 12 14 8 16 -36 16 -58 0 -78 17 -81 68
-3 42 13 72 38 72 15 0 20 7 20 28 0 15 5 33 12 40 8 8 8 12 1 12 -6 0 -18 30
-27 68 -24 96 -45 160 -72 216 -24 50 -23 76 1 42 14 -19 35 -14 35 8 0 13
-41 36 -65 36 -12 0 -35 28 -35 44 0 8 93 49 119 52 13 2 30 5 36 8 7 2 21 -1
31 -8 11 -7 42 -13 71 -13 28 0 73 -6 101 -13 49 -13 50 -14 56 -59 4 -25 9
-88 13 -140 6 -90 5 -93 -13 -84 -10 6 -36 13 -56 17 -21 4 -38 13 -38 20 0
18 -38 48 -98 75 -28 14 -52 29 -53 35 -1 16 -5 76 -7 120 -1 22 -5 36 -8 33
-9 -8 -11 -86 -3 -81 3 2 6 -17 5 -41 0 -43 -16 -60 -31 -35 -4 6 -10 8 -15 5
-11 -7 21 -44 33 -38 4 2 7 -1 7 -6 0 -15 30 -14 30 2 1 8 4 7 13 -3 7 -8 18
-15 26 -15 20 0 50 -62 57 -117 4 -27 11 -48 16 -48 5 0 6 19 3 44 -9 55 1 76
21 47 12 -17 62 -35 99 -36 6 0 15 -7 22 -15 8 -9 12 -10 13 -3 0 6 9 9 20 6
11 -3 20 0 20 6 0 10 -14 15 -32 12 -5 0 -8 23 -8 51 0 51 1 52 16 30 8 -12
20 -20 25 -16 6 4 6 11 -2 20 -9 11 -9 21 0 41 16 34 10 38 -21 13 l-26 -20
-7 63 c-3 34 -9 70 -11 80 -5 15 1 17 60 14 36 -2 63 0 60 4 -3 5 -12 9 -20 9
-15 0 -19 25 -5 34 15 10 31 -20 44 -82 7 -32 18 -66 25 -74 7 -9 10 -22 6
-31 -3 -8 -1 -31 4 -51 6 -21 7 -36 1 -36 -5 0 -9 10 -9 23 0 12 -4 28 -9 36
-13 21 -33 -22 -28 -62 4 -31 4 -31 5 6 3 49 18 47 26 -4 5 -34 9 -39 26 -34
34 11 22 -5 -15 -21 -20 -8 -35 -21 -35 -31 0 -16 1 -16 13 0 6 9 26 21 42 27
l30 10 -27 -23 c-16 -12 -28 -30 -28 -38 0 -22 -39 -99 -50 -99 -10 0 7 59 21
75 14 14 11 25 -5 19 -19 -7 -26 18 -25 86 1 86 9 141 20 135 5 -4 9 -2 9 4 0
5 -5 13 -10 16 -6 4 -8 21 -4 42 6 32 5 35 -10 30 -10 -4 -20 -7 -22 -7 -2 0
-4 -11 -4 -25 0 -19 -5 -25 -21 -25 -19 0 -18 -2 6 -23 24 -20 25 -26 17 -62
-6 -27 -5 -47 2 -59 8 -14 8 -20 -2 -23 -6 -3 -10 -8 -8 -11 2 -4 7 -37 10
-74 l7 -68 -31 0 c-36 0 -38 12 -7 33 18 13 19 16 5 16 -9 1 -20 -3 -23 -9
-11 -18 -25 -11 -26 13 -1 17 -3 15 -10 -10 -8 -26 -15 -33 -37 -34 -26 -1
-26 -1 6 -11 21 -7 32 -17 32 -29 0 -24 -16 -24 -29 -1 -6 9 -11 12 -11 6 0
-6 7 -17 15 -24 8 -7 15 -22 16 -34 0 -18 2 -17 11 7 6 18 16 27 27 25 10 -2
17 2 17 7 -1 6 -9 10 -18 9 -10 0 -18 7 -18 15 0 13 8 16 41 13 33 -4 39 -7
33 -21 -3 -9 -10 -32 -15 -51 -4 -19 -11 -47 -15 -62 -3 -16 -2 -28 2 -28 15
0 36 59 31 86 -3 19 -1 22 8 14 10 -8 22 5 49 57 20 37 36 73 36 79 0 7 7 14
15 18 16 6 21 -9 5 -19 -6 -4 -6 -15 1 -32 5 -15 7 -33 5 -40 -3 -8 5 -26 19
-41 14 -15 28 -34 30 -43 8 -24 -12 -69 -30 -69 -8 0 -15 -6 -15 -14 0 -8 -6
-16 -12 -19 -7 -2 -10 -7 -7 -11 3 -4 18 -2 32 3 20 8 27 7 31 -5 10 -26 7
-34 -16 -44 l-23 -9 23 0 c17 -1 22 -7 22 -26 0 -14 -4 -33 -9 -43 -11 -24
-39 -112 -35 -112 2 0 11 14 20 32 14 28 17 29 26 14 12 -21 2 -64 -18 -88
-10 -11 -12 -18 -5 -23 6 -3 11 -1 11 5 0 6 5 8 10 5 6 -3 10 -21 10 -39 0
-25 -5 -35 -20 -39 -12 -3 -23 1 -28 9 -7 12 -11 12 -30 -2 -12 -8 -22 -22
-22 -30 0 -17 5 -17 31 -4 14 8 31 7 60 -3 48 -16 43 -21 -40 -48 -37 -11 -48
-17 -31 -18 14 -1 46 7 73 16 55 20 51 0 37 228 -5 83 -11 193 -13 245 -3 70
-12 123 -36 204 -18 60 -33 124 -33 142 0 23 -4 31 -14 27 -14 -5 -32 42 -20
54 3 4 6 -3 6 -15 0 -12 5 -22 10 -22 6 0 10 9 10 20 0 32 -71 203 -91 222
-11 9 -19 19 -19 23 0 15 -48 68 -80 88 -19 11 -57 40 -84 63 -27 23 -69 54
-95 67 -49 27 -365 140 -496 177 -112 33 -119 41 -123 148 -2 82 0 92 37 177
33 77 43 90 63 90 12 0 22 5 21 11 -1 6 9 42 23 80 13 37 27 91 30 120 6 47 4
56 -18 83 -19 22 -28 27 -37 18z m114 -797 c3 -5 14 -6 24 -3 10 3 22 -1 27
-8 5 -9 2 -11 -9 -6 -10 3 -17 2 -17 -2 0 -20 -29 -18 -54 4 l-26 23 25 0 c14
0 28 -4 30 -8z m193 -56 c12 -4 22 -10 22 -15 0 -15 -37 -10 -50 6 -13 16 -8
18 28 9z m55 -42 c24 12 79 -3 117 -33 25 -19 25 -19 -20 -4 -45 16 -96 13
-85 -5 3 -6 0 -10 -7 -10 -8 0 -22 15 -32 33 -10 17 -13 27 -6 20 10 -9 18 -9
33 -1z m-66 -54 c16 -13 74 -28 68 -18 -8 12 78 24 120 16 19 -4 43 -15 53
-25 9 -10 27 -23 39 -29 14 -8 28 -34 42 -79 12 -36 21 -70 21 -74 0 -5 -19
-1 -42 7 -24 8 -73 16 -110 18 -37 1 -71 5 -74 9 -4 4 -21 7 -39 7 -26 0 -33
5 -43 33 -6 18 -28 59 -47 91 -19 32 -35 60 -35 62 0 5 33 -8 47 -18z m391
-111 c6 3 12 0 12 -5 0 -6 -4 -12 -10 -14 -5 -1 -11 -24 -12 -50 -2 -30 -8
-48 -15 -48 -7 0 -13 10 -13 23 0 12 -7 44 -15 71 -21 68 -19 74 13 44 15 -14
33 -23 40 -21z m-485 -539 c4 -12 5 -23 4 -24 -1 -1 -47 -16 -102 -34 -55 -17
-106 -34 -113 -36 -8 -4 -10 0 -6 10 3 9 17 16 29 16 13 0 37 11 53 25 25 21
104 62 123 64 4 1 9 -9 12 -21z m48 12 c27 -15 24 -30 -6 -30 -14 0 -25 2 -25
4 0 2 -3 11 -6 20 -7 18 8 21 37 6z m35 -53 c17 -117 17 -117 -5 -117 -15 0
-21 6 -21 23 -1 12 -7 39 -14 60 -13 36 -13 39 7 47 24 8 30 6 33 -13z m-549
-112 c71 -43 123 -52 182 -31 24 9 46 14 49 11 3 -3 0 -5 -7 -5 -8 0 -11 -10
-8 -27 8 -45 18 -63 36 -63 9 0 23 -4 31 -10 12 -7 11 -12 -9 -29 l-24 -21 22
-66 c13 -36 21 -67 19 -69 -5 -5 -240 -24 -330 -26 -62 -2 -70 0 -93 25 -13
14 -38 29 -55 32 -77 16 -27 23 127 18 189 -6 242 3 276 48 15 20 18 35 13 62
-10 55 -35 62 -98 29 -50 -25 -61 -26 -167 -24 -63 1 -117 3 -119 5 -5 6 82
176 90 176 4 0 33 -16 65 -35z m525 -38 c18 -28 9 -45 -25 -45 -18 0 -51 -8
-72 -17 -22 -10 -51 -17 -64 -16 -19 1 -21 -2 -12 -13 9 -11 9 -16 0 -22 -8
-4 -9 -3 -5 4 4 7 2 12 -3 12 -6 0 -11 -7 -11 -16 0 -9 -5 -14 -12 -12 -11 4
-13 20 -9 58 1 6 10 10 20 10 11 0 34 15 52 33 27 28 40 33 83 35 30 1 53 -4
58 -11z m22 -73 c8 -22 -13 -152 -31 -192 -10 -21 -25 -34 -42 -38 -28 -6 -66
-18 -93 -29 -14 -6 -18 -2 -18 17 0 13 -8 46 -18 73 -27 78 -20 101 41 132 50
25 120 51 143 52 7 1 15 -6 18 -15z m-336 -41 c8 -80 -38 -97 -255 -92 -83 2
-154 7 -158 10 -3 4 2 22 11 41 l16 35 127 -5 c122 -4 129 -3 176 21 63 33 79
31 83 -10z m710 -77 c-2 -24 -8 -32 -26 -34 -22 -3 -23 -1 -17 30 10 44 13 48
31 41 10 -4 14 -16 12 -37z m-329 -62 c1 -17 -6 -23 -29 -26 -25 -4 -30 -2
-24 11 4 9 11 36 17 60 l11 44 12 -34 c7 -19 13 -44 13 -55z m-745 -23 c17
-15 16 -16 -30 -23 -31 -4 -56 -16 -73 -33 -23 -23 -26 -33 -25 -97 1 -41 6
-74 12 -76 6 -2 8 -10 5 -18 -4 -11 -12 -5 -30 21 -13 19 -30 35 -38 35 -19 0
-19 20 -1 45 7 11 32 57 55 102 l42 82 32 -11 c18 -6 40 -18 51 -27z m1051
-41 c-17 -69 -33 -90 -68 -90 -12 0 -13 6 -3 33 6 17 19 43 29 57 9 13 17 32
17 42 0 16 30 41 39 33 2 -2 -4 -36 -14 -75z m-287 4 c3 -18 -1 -21 -20 -17
-30 6 -78 -31 -78 -59 0 -15 -5 -19 -20 -15 -11 3 -20 1 -20 -4 0 -5 4 -9 10
-9 5 0 7 -7 4 -15 -4 -8 -16 -15 -28 -15 -12 0 -26 -4 -32 -10 -17 -17 -32 4
-42 57 -7 42 -6 53 5 57 24 10 39 7 23 -4 -8 -5 -10 -10 -4 -10 5 0 14 4 20
10 14 14 145 59 164 57 8 -1 16 -12 18 -23z m-388 -21 c0 -21 3 -48 6 -60 6
-21 4 -22 -23 -12 -17 5 -36 9 -44 7 -10 -2 -15 10 -17 44 -3 49 2 54 56 57
19 1 22 -4 22 -36z m87 5 c4 -18 6 -36 5 -40 -1 -5 2 -8 6 -8 5 0 9 -6 9 -12
0 -7 3 -27 7 -44 5 -23 3 -33 -7 -37 -48 -18 -87 36 -87 120 0 52 0 53 30 53
26 0 31 -5 37 -32z m-453 -44 c5 -47 3 -61 -15 -90 -12 -19 -26 -33 -33 -31
-15 5 -36 168 -22 172 22 7 51 11 57 9 3 -2 9 -29 13 -60z m270 14 c5 -38 4
-54 -5 -57 -7 -2 -23 -15 -36 -29 -13 -14 -26 -22 -30 -19 -7 8 -22 89 -22
130 -1 25 2 27 43 27 l43 0 7 -52z m-204 30 c0 -7 3 -22 5 -33 4 -15 -2 -24
-25 -37 l-30 -17 0 34 c0 18 -3 40 -6 49 -5 13 1 16 25 16 18 0 31 -5 31 -12z
m94 -10 c3 -13 6 -35 6 -49 l0 -27 -37 19 c-27 14 -40 28 -44 49 -6 29 -5 30
31 30 31 0 39 -4 44 -22z m-249 -55 c12 -98 12 -98 -12 -101 -22 -3 -23 0 -23
61 0 109 24 136 35 40z m590 16 c-4 -5 -2 -9 3 -9 8 0 28 -86 23 -97 -2 -7
-16 3 -17 12 -5 33 -14 73 -20 94 -5 17 -4 22 5 17 6 -4 9 -12 6 -17z m280
-66 c9 -49 19 -97 22 -108 16 -71 15 -93 -3 -98 -66 -19 -114 -30 -151 -32
-41 -3 -43 -2 -51 28 -5 18 -8 35 -6 38 2 4 23 3 46 -1 35 -7 45 -5 55 10 8
12 23 17 43 16 16 -1 27 0 25 2 -3 3 3 11 13 19 15 13 15 13 -8 7 -14 -3 -37
-12 -52 -19 -23 -11 -29 -11 -36 0 -6 12 -13 12 -47 0 -59 -21 -60 -20 -74 37
-13 58 -7 67 44 68 47 0 80 22 77 50 -4 36 24 70 57 70 28 0 29 -2 46 -87z
m135 22 c6 4 10 -25 10 -74 0 -56 4 -81 12 -81 9 0 9 -3 0 -12 -16 -16 -15
-31 1 -25 19 7 19 -32 0 -51 -9 -9 -11 -18 -5 -20 6 -2 7 -14 3 -30 -9 -34
-41 -45 -196 -67 -66 -10 -125 -22 -132 -27 -16 -13 -41 11 -37 35 1 9 -2 17
-7 17 -6 0 -7 5 -4 10 3 6 0 10 -7 10 -9 0 -9 3 2 10 8 5 10 10 3 10 -6 0 -10
8 -9 18 4 24 31 22 31 -3 0 -11 3 -24 6 -30 3 -5 5 -22 4 -38 0 -15 2 -26 5
-24 24 13 66 27 125 42 112 28 113 28 118 13 2 -7 3 -5 2 4 -2 10 18 31 51 55
29 21 53 42 54 46 0 5 -23 -7 -50 -27 -28 -20 -52 -36 -55 -36 -3 0 -5 9 -5
21 0 11 4 18 9 14 13 -7 22 10 15 28 -3 9 -12 13 -20 10 -10 -4 -14 3 -14 24
0 16 -9 69 -20 119 -11 49 -20 95 -20 102 0 8 21 2 60 -18 34 -17 65 -28 70
-25z m-758 -13 c73 -67 54 -208 -36 -270 -31 -21 -86 -30 -86 -14 0 9 40 268
46 300 4 19 9 22 27 16 12 -3 34 -18 49 -32z m221 -3 c66 -51 57 -182 -18
-256 -40 -41 -77 -54 -90 -34 -3 5 1 52 10 103 8 51 15 112 15 135 0 23 3 48
6 57 9 22 46 20 77 -5z m-333 -25 c0 -8 -3 -14 -7 -14 -5 0 -9 -17 -10 -38 -3
-51 -10 -104 -18 -125 -10 -24 -24 -22 -18 3 4 14 0 20 -11 20 -10 0 -15 3
-13 8 3 4 8 29 11 56 5 33 14 55 27 64 10 7 19 22 19 33 0 11 5 17 10 14 6 -3
10 -13 10 -21z m451 -44 c1 -11 3 -24 4 -30 1 -5 3 -18 4 -28 0 -9 11 -22 24
-27 24 -11 30 -36 10 -42 -8 -3 -11 3 -8 16 2 12 -1 21 -6 21 -15 0 -3 -69 26
-167 4 -13 4 -23 -1 -23 -13 0 -44 32 -44 46 0 7 -4 16 -10 19 -6 4 -8 -5 -4
-22 5 -23 -3 -41 -40 -91 -25 -34 -50 -62 -56 -62 -5 0 -10 20 -10 44 0 44 -1
45 -55 72 -51 24 -63 26 -131 21 -94 -7 -167 -40 -172 -77 -2 -14 -7 -29 -11
-33 -13 -13 -119 110 -130 151 -14 48 -14 127 0 175 9 33 13 37 43 37 l34 0
-5 -44 c-8 -66 4 -112 39 -151 25 -30 37 -35 72 -35 22 0 50 7 60 15 10 8 23
12 29 8 6 -3 7 -2 4 3 -3 5 3 20 13 34 l18 23 16 -31 c45 -88 137 -81 193 15
23 39 28 60 28 115 l0 68 33 0 c25 0 32 -4 33 -20z m318 -201 c-8 -4 -50 -18
-94 -29 -44 -12 -89 -24 -100 -27 -17 -5 -18 -4 -6 10 11 14 11 18 -3 23 -27
10 -18 24 17 24 17 0 68 9 112 19 69 15 80 16 83 3 2 -8 -2 -18 -9 -23z
m-1079 -82 c41 -21 82 -16 122 13 l26 19 28 -37 c15 -20 39 -46 52 -58 l26
-21 -55 -7 c-30 -4 -62 -14 -71 -23 -13 -12 -34 -14 -100 -10 -46 3 -94 6
-107 6 -23 1 -23 2 -16 74 8 85 1 87 -14 4 -16 -85 -7 -97 73 -97 35 0 83 -3
108 -6 41 -6 45 -9 60 -50 l16 -44 -58 0 c-91 0 -118 8 -132 42 -13 29 -47 46
-67 33 -6 -3 -11 2 -11 11 0 10 -7 25 -16 35 -14 16 -17 15 -40 -7 -13 -14
-27 -42 -30 -64 -6 -39 -34 -58 -34 -24 0 23 62 134 72 128 4 -3 8 2 8 12 0 9
19 50 41 91 l41 75 22 -39 c12 -21 37 -46 56 -56z m538 17 c16 -5 22 -14 22
-35 0 -28 -2 -29 -50 -29 -48 0 -50 1 -50 28 0 16 3 32 7 35 8 9 41 9 71 1z
m298 -114 c2 -34 8 -68 13 -74 6 -7 8 -16 4 -19 -3 -4 2 -7 11 -7 20 0 17 -22
-5 -28 -11 -3 -11 -2 1 7 10 7 11 11 3 11 -7 0 -21 17 -32 39 -22 42 -74 91
-98 91 -17 0 -16 1 16 52 l23 38 30 -24 c28 -21 31 -30 34 -86z m-418 77 c6
-5 12 -17 12 -28 0 -11 -5 -17 -10 -14 -6 3 -17 -1 -26 -9 -9 -9 -20 -13 -26
-10 -7 4 -8 2 -4 -4 5 -8 -2 -12 -19 -12 -33 0 -41 22 -20 54 22 33 61 42 93
23z m193 -38 c-2 -8 -4 -19 -4 -26 0 -9 -5 -9 -21 -1 -13 7 -16 13 -8 16 6 2
12 10 12 19 0 8 6 13 13 10 6 -2 10 -11 8 -18z m-48 -44 c65 -27 57 -39 -33
-51 -51 -7 -166 11 -176 27 -2 4 8 15 23 23 36 20 140 20 186 1z m222 -28 c17
-18 41 -62 54 -101 29 -85 23 -92 -80 -105 -41 -6 -82 -13 -91 -16 -13 -5 -18
5 -27 62 -21 135 -21 138 24 172 49 37 77 34 120 -12z m-487 17 c23 -15 23
-17 5 -42 -9 -15 -36 -60 -60 -101 l-42 -73 -15 35 c-42 103 -59 158 -49 168
9 9 55 19 128 28 6 0 21 -6 33 -15z m-431 -34 c4 -22 -34 -80 -52 -80 -19 0
-19 33 1 71 16 31 46 37 51 9z m506 -5 c41 -17 172 -20 211 -5 25 9 26 8 26
-23 0 -39 18 -140 30 -173 8 -21 12 -22 41 -12 36 12 49 1 49 -42 0 -18 -9
-29 -34 -42 l-34 -17 -6 34 c-10 49 -42 85 -77 85 -40 0 -112 -65 -103 -93 6
-19 3 -19 -92 -13 -55 4 -125 9 -156 12 l-57 6 35 71 c30 60 126 227 130 227
1 0 18 -7 37 -15z m-433 -45 c11 -21 8 -41 -13 -92 -14 -33 -45 -43 -70 -21
-14 14 -17 25 -11 57 3 22 11 48 18 58 15 25 62 23 76 -2z m-170 -45 c10 -13
11 -18 1 -28 -10 -9 -15 -8 -26 7 -23 31 1 50 25 21z m62 -20 c-5 -31 -42 -35
-42 -6 0 17 10 24 41 30 3 0 4 -10 1 -24z m1066 -22 c-1 -10 1 -23 5 -30 4 -6
3 -14 -3 -18 -6 -3 -12 1 -15 9 -3 9 -7 22 -9 30 -5 15 2 26 16 26 5 0 8 -8 6
-17z m-934 -34 c-2 -4 7 -19 21 -33 31 -31 31 -41 0 -71 -18 -19 -35 -25 -69
-25 -59 0 -76 8 -76 35 0 34 37 73 76 81 23 4 33 11 30 19 -2 7 -2 16 2 19 7
8 22 -15 16 -25z m907 -21 c2 -33 11 -73 20 -90 9 -17 7 -19 -18 -16 -26 3
-29 7 -34 53 -4 31 -2 53 5 57 16 11 26 10 27 -4z m-481 -163 c-14 -17 -55
-21 -45 -4 8 11 48 29 54 23 2 -2 -2 -10 -9 -19z"/>
<path d="M2313 2128 c4 -12 1 -18 -8 -18 -31 0 -10 -31 24 -37 15 -2 31 -22
31 -38 -1 -5 -9 0 -20 13 -22 26 -35 16 -14 -13 8 -10 14 -16 14 -12 0 4 9 3
21 -3 31 -17 33 -7 7 36 -28 49 -63 95 -55 72z"/>
<path d="M2370 2123 c0 -7 22 -13 68 -16 6 0 12 -4 12 -8 0 -4 7 -9 15 -13 21
-8 19 11 -3 23 -27 14 -92 24 -92 14z"/>
<path d="M1287 3109 c-12 -7 -41 -9 -75 -5 -44 5 -53 4 -39 -5 10 -6 38 -11
62 -11 26 -1 42 -5 38 -11 -3 -5 8 1 26 14 17 12 31 24 31 26 0 7 -26 2 -43
-8z"/>
<path d="M1610 3115 c0 -3 21 -15 47 -26 37 -16 58 -18 107 -13 34 4 55 9 47
12 -11 4 -11 6 0 14 9 6 6 7 -11 1 -35 -11 -153 -6 -146 6 3 4 -6 8 -20 9 -13
1 -24 -1 -24 -3z"/>
<path d="M1931 3000 l1 -45 10 34 c6 23 6 37 -1 44 -8 8 -11 -2 -10 -33z"/>
<path d="M1725 2872 c29 -28 41 -34 44 -23 4 18 -43 61 -67 61 -12 0 -5 -11
23 -38z"/>
<path d="M1300 2810 c-35 -12 -59 -15 -64 -9 -16 15 -30 10 -16 -6 6 -8 27
-14 44 -13 18 1 37 -2 43 -5 5 -3 27 2 49 13 28 14 51 18 82 13 60 -8 57 -33
-5 -33 -25 0 -43 -3 -40 -6 4 -4 48 -7 99 -7 l93 1 -45 -15 c-25 -8 -63 -12
-85 -9 -35 5 -37 4 -15 -5 42 -18 168 9 154 32 -3 5 -27 9 -55 9 -38 0 -49 3
-49 16 0 14 11 16 69 12 77 -4 109 -21 89 -47 -7 -9 1 -4 18 12 17 15 40 27
51 27 12 0 25 5 28 11 11 16 -3 23 -20 9 -11 -9 -22 -10 -47 0 -18 6 -98 13
-178 15 -122 3 -154 1 -200 -15z"/>
<path d="M1323 2702 c37 -37 74 -60 135 -80 59 -19 172 31 203 91 l12 22 -25
-23 c-13 -12 -27 -20 -30 -16 -9 8 -50 -15 -43 -25 8 -15 -75 -31 -103 -20
-13 5 -27 7 -30 4 -3 -3 -17 6 -32 20 -14 13 -35 26 -47 28 -12 2 -31 11 -41
20 -36 33 -36 17 1 -21z"/>
<path d="M1297 2541 c3 -12 14 -28 24 -35 10 -7 16 -16 11 -21 -4 -5 -2 -5 4
-2 6 3 26 -4 45 -15 36 -23 90 -31 83 -13 -2 5 -16 11 -30 12 -15 0 -30 7 -35
15 -5 7 -13 14 -19 14 -5 1 -14 2 -19 3 -5 0 -22 15 -39 32 -26 27 -30 28 -25
10z"/>
<path d="M1652 2516 c-11 -15 -27 -26 -35 -26 -18 0 -67 -39 -49 -40 27 0 81
30 98 54 22 35 12 44 -14 12z"/>
<path d="M1276 2451 c5 -5 18 -11 29 -13 11 -1 23 -10 27 -18 6 -11 7 -10 5 5
-2 11 -9 19 -15 18 -7 -2 -12 2 -12 7 0 6 -10 10 -22 10 -14 0 -18 -4 -12 -9z"/>
<path d="M1904 2288 c0 -31 4 -54 8 -52 16 10 11 -56 -8 -108 -24 -63 -94
-146 -94 -112 0 15 -2 16 -9 5 -5 -8 -7 -21 -3 -29 4 -11 0 -14 -15 -10 -14 4
-19 0 -18 -13 1 -10 4 -21 7 -24 3 -4 39 27 80 67 97 95 109 130 85 243 -3 11
-12 36 -20 55 l-15 35 2 -57z"/>
<path d="M1735 2221 c-33 -26 -76 -53 -95 -59 -35 -12 -97 -11 -139 3 -12 4
-21 2 -21 -4 0 -6 -16 -11 -35 -11 -19 0 -35 -4 -35 -10 0 -19 -54 -10 -78 13
-14 12 -22 16 -18 10 5 -9 2 -11 -8 -7 -9 3 -13 10 -10 15 5 8 -16 13 -43 10
-6 -1 -14 3 -18 9 -5 8 -69 40 -81 40 -2 0 -1 -6 2 -14 19 -48 175 -106 288
-106 104 0 296 45 296 69 0 3 10 17 23 31 19 20 43 62 34 59 -1 0 -29 -22 -62
-48z"/>
<path d="M1771 2189 c-12 -19 -21 -37 -21 -41 0 -4 -90 -191 -200 -414 -110
-224 -199 -408 -198 -410 9 -8 39 30 73 91 22 39 40 72 41 75 7 33 18 60 24
60 4 0 16 23 26 50 10 28 21 50 25 50 3 0 17 28 30 63 12 34 25 64 29 67 9 8
34 64 32 73 -1 4 2 7 7 7 5 0 16 17 25 38 26 57 44 87 55 87 5 0 13 4 18 9 5
5 2 6 -5 1 -10 -5 -13 -2 -10 11 2 11 8 19 15 19 6 0 15 4 20 8 4 5 3 8 -2 7
-24 -5 -27 1 -9 16 10 8 13 13 7 9 -11 -5 12 50 27 65 13 13 27 69 20 81 -6 9
-14 2 -29 -22z"/>
<path d="M2121 2094 c6 -8 16 -14 22 -14 6 0 19 -8 30 -17 20 -18 20 -18 5 11
-10 19 -24 30 -42 32 -23 2 -25 0 -15 -12z"/>
<path d="M2212 2048 c19 -37 23 -40 26 -21 4 28 -14 63 -34 63 -12 0 -10 -8 8
-42z"/>
<path d="M2289 1934 c-2 -41 2 -67 11 -84 5 -8 6 11 3 45 -6 66 -12 84 -14 39z"/>
<path d="M975 1923 c20 -43 20 -43 -22 -43 -21 0 -45 -5 -53 -10 -11 -7 -8
-10 16 -10 16 0 35 -5 41 -11 9 -9 18 -8 37 5 15 9 26 20 26 25 0 19 -12 41
-22 41 -6 0 -17 8 -25 18 -10 13 -10 9 2 -15z"/>
<path d="M1753 1923 c20 -5 22 -14 5 -31 -18 -18 -1 -27 24 -13 19 9 19 11 3
6 -19 -5 -19 -4 -2 9 18 14 18 15 -2 25 -11 6 -26 10 -33 10 -7 -1 -5 -3 5 -6z"/>
<path d="M2513 1865 c11 -24 23 -43 25 -40 7 6 -29 85 -38 85 -4 0 2 -20 13
-45z"/>
<path d="M1050 1843 c14 -18 34 -32 45 -32 18 0 18 1 4 12 -9 7 -18 19 -22 27
-4 12 -6 12 -6 1 -1 -11 -6 -10 -23 5 -20 17 -20 16 2 -13z"/>
<path d="M2010 1856 c0 -2 9 -25 21 -52 32 -77 36 -87 49 -121 7 -18 16 -33
21 -33 5 0 3 15 -5 33 -8 17 -21 50 -31 72 -28 69 -46 105 -50 105 -3 0 -5 -2
-5 -4z"/>
<path d="M1645 1814 c43 -33 73 -45 81 -31 4 6 3 9 -1 4 -5 -4 -17 0 -27 10
-10 9 -18 12 -18 7 0 -5 -4 -3 -9 5 -5 8 -18 16 -28 17 -16 3 -16 1 2 -12z"/>
<path d="M1623 1773 c-20 -7 -15 -23 7 -23 12 0 31 -7 44 -16 14 -8 27 -11 30
-6 3 5 -9 16 -27 23 -17 7 -34 16 -37 19 -3 4 -11 5 -17 3z"/>
<path d="M2330 1714 c0 -25 22 -104 30 -109 5 -3 3 19 -4 48 -7 29 -11 58 -8
65 2 7 -1 12 -7 12 -6 0 -11 -7 -11 -16z"/>
<path d="M2469 1515 c-3 -11 -3 -47 0 -80 4 -33 8 -51 11 -40 7 28 -4 145 -11
120z"/>
<path d="M1188 1485 c-13 -17 -14 -25 -5 -34 15 -15 27 -14 27 4 0 19 4 19 40
0 36 -18 38 -13 8 15 -40 37 -52 40 -70 15z"/>
<path d="M372 1450 c7 -11 16 -20 20 -20 5 0 8 9 8 20 0 13 -7 20 -20 20 -18
0 -19 -2 -8 -20z"/>
<path d="M514 1424 c3 -9 6 -24 6 -35 0 -10 6 -19 14 -19 8 0 13 6 12 13 -6
31 -18 57 -28 57 -5 0 -7 -7 -4 -16z"/>
<path d="M2586 1389 c-3 -17 -5 -46 -5 -63 1 -18 5 -7 10 28 9 63 6 88 -5 35z"/>
<path d="M407 1390 c4 -16 14 -20 49 -20 32 0 44 4 44 15 0 11 -10 14 -38 13
-22 0 -44 2 -49 5 -7 5 -9 0 -6 -13z"/>
<path d="M560 1381 c0 -28 -2 -29 -50 -33 -28 -1 -61 0 -74 3 -20 6 -22 3 -18
-17 5 -27 22 -33 22 -8 0 13 4 12 28 -5 16 -11 35 -19 43 -17 31 5 59 18 59
27 0 5 7 9 15 9 8 0 15 5 15 11 0 5 5 7 11 3 6 -3 4 5 -6 19 -25 39 -45 42
-45 8z m-5 -51 c-3 -5 -19 -10 -35 -10 -16 0 -32 5 -35 10 -4 6 10 10 35 10
25 0 39 -4 35 -10z"/>
<path d="M2306 1379 c-18 -22 -18 -22 15 -15 40 8 48 14 29 26 -21 13 -23 13
-44 -11z"/>
<path d="M2701 1327 c-30 -18 -32 -21 -15 -27 11 -4 24 -1 34 9 8 9 22 21 30
28 26 22 -10 14 -49 -10z"/>
<path d="M300 1260 c0 -5 4 -10 9 -10 5 0 11 -9 14 -20 3 -11 10 -20 16 -20
17 0 13 14 -9 38 -23 24 -30 27 -30 12z"/>
<path d="M1325 1178 c-11 -22 -20 -46 -21 -52 0 -6 -2 -22 -2 -35 -2 -16 -6
-21 -17 -17 -8 3 -15 0 -15 -5 0 -6 9 -9 20 -6 11 3 22 2 24 -2 7 -11 66 -12
66 -1 0 6 -14 29 -31 52 -16 24 -25 44 -20 46 6 2 11 10 11 18 0 19 7 18 47
-7 29 -18 37 -19 44 -8 6 10 -2 20 -29 36 -20 13 -41 23 -47 23 -5 0 -19 -19
-30 -42z"/>
<path d="M776 1182 c-5 -9 71 -42 96 -42 11 0 -24 36 -37 37 -5 1 -20 5 -31 8
-12 4 -25 2 -28 -3z"/>
<path d="M1028 1175 c-16 -49 -19 -85 -9 -85 6 0 11 9 11 19 0 11 4 21 8 23 4
2 5 17 2 33 -5 25 -7 27 -12 10z"/>
<path d="M412 1163 c-20 -3 -32 -9 -29 -16 2 -7 0 -20 -5 -31 -7 -12 -6 -22 2
-30 8 -8 10 -7 6 4 -7 18 1 31 36 52 l27 17 6 -32 c4 -17 9 -40 12 -50 5 -17
0 -18 -64 -13 -45 4 -61 3 -48 -3 11 -5 32 -10 47 -10 14 -1 29 -7 31 -13 4
-10 6 -10 6 0 1 6 10 12 21 12 23 0 26 10 16 61 -6 34 -17 59 -25 57 -3 0 -21
-3 -39 -5z"/>
<path d="M1063 1123 c4 -3 1 -13 -6 -21 -10 -12 -9 -16 2 -20 11 -4 11 -6 0
-13 -10 -6 -11 -9 -1 -9 6 0 12 -7 12 -15 0 -19 20 -19 48 1 28 19 28 35 -1
62 -20 19 -72 34 -54 15z m54 -57 c-4 -9 -13 -16 -22 -16 -11 0 -15 10 -15 37
l0 37 21 -21 c13 -12 19 -28 16 -37z"/>
<path d="M47 1040 c-34 -37 -38 -45 -35 -88 l3 -46 51 -16 c29 -8 66 -29 84
-47 32 -31 32 -32 27 -105 -3 -44 -2 -65 3 -53 8 18 9 17 9 -7 1 -29 10 -29
-108 -8 -67 12 -81 12 -81 1 0 -8 29 -15 115 -27 17 -3 41 -7 54 -10 l24 -5
-7 -122 c-9 -174 -10 -307 -2 -314 3 -3 7 41 7 98 1 57 3 120 4 139 0 19 2 54
3 78 1 23 7 42 12 42 7 0 9 -15 5 -41 -4 -23 -2 -39 2 -36 5 3 10 24 11 47 2
31 -2 46 -15 57 -10 8 -11 11 -3 7 12 -6 13 -4 3 7 -26 27 -15 40 30 37 37 -3
42 -6 40 -26 -2 -13 1 -21 6 -18 10 6 23 -73 14 -87 -3 -5 -9 -3 -14 4 -7 11
-9 10 -9 -3 0 -10 6 -18 14 -18 8 0 18 -9 21 -20 3 -11 10 -20 14 -20 9 0 -5
112 -19 153 -10 30 -11 30 59 27 43 -2 102 -30 129 -63 16 -18 26 -197 12
-197 -6 0 -10 -11 -10 -25 0 -13 -8 -29 -17 -34 -10 -6 -14 -11 -10 -11 5 0
20 9 34 20 31 24 43 25 43 3 0 -9 11 -33 24 -52 28 -42 47 -166 24 -159 -8 3
-14 26 -16 66 -3 68 -12 77 -31 35 l-13 -28 -19 24 c-11 13 -18 30 -15 38 3 7
1 13 -4 13 -6 0 -10 -7 -10 -15 0 -8 -7 -15 -15 -15 -8 0 -15 -7 -15 -15 0
-18 16 -20 23 -2 4 8 6 8 6 -3 1 -8 13 -24 29 -36 36 -30 19 -47 -49 -48 -46
-1 -54 2 -78 30 -25 30 -29 32 -87 29 -109 -4 -89 12 23 19 98 6 110 9 133 33
23 23 23 24 3 14 -12 -6 -24 -15 -27 -20 -3 -5 -57 -12 -119 -16 -107 -7 -113
-8 -113 -29 0 -20 5 -21 75 -21 41 0 76 -4 78 -10 2 -6 -28 -10 -76 -10 l-79
0 14 -34 c16 -38 16 -38 -11 -43 -18 -3 -20 2 -18 60 2 47 -1 62 -11 62 -7 0
-16 9 -19 20 -4 14 -13 19 -33 18 -16 -1 -49 2 -74 5 -44 7 -44 7 -10 -4 19
-6 38 -16 42 -22 5 -8 8 -8 8 -1 0 6 13 9 30 6 25 -4 29 -8 24 -24 -5 -17 -3
-19 15 -13 15 5 21 2 21 -9 0 -19 -1 -19 -37 -5 -36 15 -143 21 -143 8 0 -5
11 -9 25 -9 14 0 25 -6 25 -13 0 -7 8 -17 18 -24 15 -9 21 -7 30 8 15 24 42
25 42 2 0 -10 6 -30 14 -45 14 -26 13 -27 -13 -33 -33 -7 -92 -45 -70 -45 8 0
19 4 25 9 5 5 39 16 77 24 l67 15 1 -26 c1 -19 3 -21 6 -9 3 13 10 16 21 11
10 -4 34 -9 55 -12 36 -4 37 -3 37 28 0 26 3 31 17 26 10 -4 14 -3 9 1 -4 4
-23 8 -41 8 -28 1 -32 -2 -23 -13 9 -10 8 -16 -3 -23 -10 -6 -19 -3 -31 11 -9
11 -21 20 -26 20 -12 0 -24 29 -17 40 5 8 66 6 95 -2 38 -12 69 -28 77 -40 13
-21 87 -57 133 -64 l41 -7 -7 52 c-6 44 -4 51 9 45 16 -6 27 -34 27 -71 0 -13
5 -23 10 -23 6 0 9 19 8 43 -3 39 -1 42 22 42 14 0 24 -4 24 -10 -1 -5 -4 -25
-7 -42 -6 -30 -4 -33 17 -31 15 1 31 14 41 31 13 21 21 26 38 21 17 -5 16 -2
-9 21 -16 15 -30 36 -30 46 -1 11 1 17 4 14 3 -3 16 2 29 10 13 9 28 13 33 10
6 -3 10 -1 10 6 0 7 -9 9 -27 5 -61 -15 -68 -13 -71 22 -3 27 -7 32 -28 32
-16 0 -24 5 -21 13 2 6 11 11 20 11 32 -3 -17 100 -54 111 -10 4 -19 10 -19
15 0 4 -9 10 -21 13 -16 4 -19 9 -11 24 15 30 15 110 0 120 -7 4 -22 21 -32
36 -9 16 -20 26 -23 23 -3 -3 -14 6 -25 19 -11 14 -28 25 -38 25 -12 0 -26 13
-36 31 -8 17 -11 29 -6 25 5 -3 15 1 22 9 9 11 9 15 1 16 -6 1 -16 2 -22 3 -5
0 -18 10 -27 22 -25 31 -80 66 -86 55 -8 -12 -67 9 -82 28 -8 10 -13 11 -18 3
-9 -15 1 -32 18 -32 8 0 19 -7 26 -15 7 -8 27 -15 44 -15 49 0 86 -21 80 -45
-3 -12 3 -32 15 -47 22 -27 27 -43 12 -34 -5 3 -51 8 -102 11 -51 3 -94 7 -96
9 -2 1 -6 38 -9 82 -6 94 -13 129 -21 120 -11 -11 -33 55 -40 116 -3 32 -9 58
-14 58 -7 0 -5 -28 6 -104 4 -25 3 -27 -10 -16 -13 11 -14 10 -9 -3 5 -14 -1
-13 -36 4 -23 11 -39 23 -36 26 3 3 1 14 -5 24 -7 14 -5 23 10 38 18 18 56 81
49 81 -2 0 -20 -18 -41 -40z m503 -580 c0 -78 -17 -78 -22 0 -2 43 1 60 10 60
8 0 12 -19 12 -60z m50 -117 c0 -7 4 -13 9 -13 10 0 65 -70 59 -75 -2 -3 -23
5 -46 16 -37 19 -42 25 -42 55 0 26 -3 32 -15 28 -15 -6 -21 16 -8 29 9 9 43
-22 43 -40z m88 -167 c8 -8 10 -24 6 -44 -6 -28 -10 -32 -40 -32 -32 0 -34 2
-34 34 0 19 -3 41 -6 50 -5 13 0 15 27 10 19 -4 40 -12 47 -18z m-143 -94 c-1
-15 2 -37 7 -49 7 -20 5 -21 -16 -11 -51 23 -57 81 -9 85 14 1 19 -5 18 -25z
m193 -18 c1 -1 0 -9 -4 -18 -11 -27 -32 -19 -30 13 1 25 3 28 16 18 8 -6 16
-12 18 -13z"/>
<path d="M1206 938 c3 -4 10 -6 15 -3 5 4 9 2 9 -3 0 -5 9 -12 20 -15 17 -4
20 -10 14 -33 -5 -19 -4 -25 5 -20 18 11 13 45 -9 64 -21 18 -64 26 -54 10z"/>
<path d="M488 920 c-3 -9 -1 -40 4 -70 6 -30 10 -63 11 -72 1 -11 5 -14 11 -8
6 6 4 38 -5 87 -8 43 -18 71 -21 63z"/>
<path d="M2765 899 c-4 -6 -5 -13 -2 -16 8 -7 47 7 47 18 0 13 -37 11 -45 -2z"/>
<path d="M2723 875 c16 -33 36 -33 29 0 -3 16 -11 25 -22 25 -16 0 -17 -3 -7
-25z"/>
<path d="M2903 862 c3 -15 -2 -32 -17 -50 -13 -15 -26 -39 -30 -54 -3 -16 -12
-28 -19 -28 -6 -1 3 -7 22 -15 37 -17 102 -20 99 -6 -2 5 5 16 15 23 16 12 14
17 -22 76 -45 73 -56 86 -48 54z m17 -76 c0 -2 3 -12 6 -21 4 -10 2 -15 -7
-13 -8 2 -13 -2 -12 -9 2 -7 -4 -10 -13 -6 -8 3 -13 12 -10 20 3 8 6 19 6 24
0 5 7 9 15 9 8 0 15 -2 15 -4z"/>
<path d="M0 810 c0 -25 4 -39 10 -35 13 8 13 62 0 70 -6 4 -10 -10 -10 -35z"/>
<path d="M111 820 c-1 -19 -6 -55 -12 -79 -5 -24 -7 -46 -5 -49 7 -6 13 11 21
60 4 27 10 36 20 31 18 -6 20 15 4 37 -9 12 -10 11 -4 -5 4 -13 3 -16 -3 -10
-6 6 -12 19 -15 30 -3 12 -5 6 -6 -15z"/>
<path d="M2781 836 c-23 -13 -23 -14 -5 -25 13 -8 15 -14 7 -17 -7 -3 -9 -12
-6 -20 8 -21 -10 -17 -24 6 -7 10 -10 27 -6 36 4 12 3 15 -5 10 -7 -4 -17 -27
-23 -52 -6 -24 -15 -44 -20 -44 -5 0 -6 -7 -3 -15 11 -27 24 -16 30 25 4 22
10 40 15 40 13 0 11 -44 -3 -58 -9 -9 -3 -12 29 -12 38 0 42 2 40 24 -1 14 2
25 7 25 11 -1 26 22 26 39 0 6 -6 12 -14 12 -8 0 -16 9 -18 19 -3 17 -6 18
-27 7z"/>
<path d="M2535 830 c-3 -5 5 -15 19 -22 23 -10 26 -17 26 -66 0 -51 1 -54 23
-48 12 3 28 6 35 6 7 0 11 4 7 9 -3 6 -1 29 4 52 l10 42 -30 -32 -29 -32 0 28
c0 34 -8 46 -37 62 -14 7 -24 8 -28 1z"/>
<path d="M434 788 c-7 -10 4 -28 17 -28 5 0 9 6 9 14 0 8 6 16 13 19 6 3 2 4
-11 4 -13 -1 -26 -5 -28 -9z"/>
<path d="M2666 759 c-9 -47 -7 -59 9 -59 8 0 15 5 15 11 0 5 -4 7 -10 4 -5 -3
-8 0 -6 7 12 38 15 68 7 68 -4 0 -11 -14 -15 -31z"/>
<path d="M1270 751 c-17 -32 -12 -96 10 -122 24 -30 25 -21 3 26 -14 29 -15
43 -6 75 11 44 9 50 -7 21z"/>
<path d="M1335 745 c-3 -8 -7 -22 -10 -30 -5 -18 14 -75 26 -75 13 0 11 17 -2
26 -7 4 -9 23 -5 50 5 43 0 59 -9 29z"/>
<path d="M294 721 c3 -5 -1 -11 -9 -15 -16 -6 -21 -36 -6 -36 5 0 16 -3 24 -6
20 -7 33 32 17 51 -13 16 -35 21 -26 6z"/>
<path d="M2960 661 c0 -6 5 -11 10 -11 6 0 15 -10 20 -22 9 -21 9 -20 7 7 -1
19 -8 31 -19 33 -10 2 -18 -1 -18 -7z"/>
<path d="M75 563 c-3 -38 -8 -87 -11 -110 -5 -42 -4 -43 23 -43 21 0 24 3 14
9 -17 11 -20 39 -11 92 4 22 4 39 1 39 -4 0 -5 18 -3 40 2 22 2 40 -1 40 -3 0
-8 -30 -12 -67z"/>
<path d="M2720 617 c0 -18 24 -66 31 -62 10 7 0 35 -18 53 -7 7 -13 12 -13 9z"/>
<path d="M380 576 c0 -8 5 -18 10 -21 6 -3 10 -15 10 -26 0 -23 34 -89 52
-101 30 -18 27 -5 -7 35 -26 30 -35 49 -32 66 3 14 -3 31 -14 42 -15 15 -19
16 -19 5z"/>
<path d="M875 580 c4 -6 -5 -10 -20 -10 -16 0 -24 -4 -20 -11 4 -6 13 -8 21
-5 8 3 14 2 14 -3 0 -16 -27 -61 -33 -55 -3 3 -11 3 -17 -1 -9 -6 -9 -10 1
-16 28 -18 46 -9 53 24 3 17 9 44 12 60 4 17 2 27 -5 27 -7 0 -9 -4 -6 -10z"/>
<path d="M2975 577 c-11 -6 -54 -11 -95 -12 -63 0 -75 -3 -78 -17 -2 -12 3
-18 16 -18 27 0 72 -38 72 -61 0 -12 7 -19 20 -19 13 0 20 -7 20 -20 0 -11 6
-20 14 -20 16 0 39 75 34 116 -2 17 3 34 12 41 21 16 9 24 -15 10z m-16 -44
c-2 -31 -14 -64 -24 -66 -5 -1 -11 17 -12 41 -1 35 2 42 18 42 12 0 19 -7 18
-17z"/>
<path d="M905 558 c-3 -13 -11 -52 -18 -88 l-12 -65 -35 3 c-34 2 -34 2 -15
-14 20 -16 20 -16 -2 -10 -12 4 -24 2 -28 -4 -3 -5 0 -10 9 -10 8 0 21 -3 30
-6 10 -4 16 -1 16 9 0 8 12 18 26 21 19 5 24 11 19 26 -5 15 -2 20 12 20 12 0
14 3 6 8 -10 6 -11 48 -3 72 1 3 3 12 4 20 0 8 9 14 19 14 14 -2 15 1 6 12
-17 20 -28 17 -34 -8z"/>
<path d="M165 548 c-8 -39 -14 -120 -8 -114 3 3 7 22 9 43 2 21 6 50 9 66 5
32 -2 37 -10 5z"/>
<path d="M730 471 c-8 -6 -17 -8 -21 -5 -4 2 -10 0 -14 -5 -3 -6 5 -17 19 -26
16 -11 23 -22 19 -33 -4 -13 -2 -12 10 3 13 17 13 21 -2 32 -15 12 -14 14 3
28 21 16 10 21 -14 6z"/>
<path d="M773 460 c1 -11 4 -20 7 -20 3 0 22 -4 43 -9 28 -7 37 -6 37 4 0 8
-14 15 -32 17 -20 2 -32 8 -30 16 1 6 -4 12 -12 12 -9 0 -14 -9 -13 -20z"/>
<path d="M2343 458 c-18 -11 -33 -24 -33 -30 0 -6 10 -3 23 6 12 9 32 21 45
26 12 5 22 12 22 15 0 10 -26 3 -57 -17z"/>
<path d="M2991 450 c-1 -8 -8 -27 -15 -42 -12 -22 -12 -35 -3 -65 l11 -38 8
69 c5 39 6 75 4 80 -2 6 -5 4 -5 -4z"/>
<path d="M2264 423 c-3 -10 -10 -27 -16 -37 -8 -15 -6 -22 8 -33 11 -7 27 -20
37 -28 22 -19 27 -19 27 -1 0 8 -8 21 -19 28 -18 13 -18 21 -5 66 5 16 2 22
-10 22 -9 0 -19 -8 -22 -17z"/>
<path d="M1 333 c-1 -64 1 -74 20 -84 17 -9 20 -8 13 3 -5 7 -14 45 -20 83
l-12 70 -1 -72z"/>
<path d="M62 339 c3 -53 4 -54 36 -57 l32 -3 0 50 c0 44 -3 51 -19 51 -11 0
-27 3 -36 6 -14 6 -16 -1 -13 -47z m48 -24 c0 -14 -4 -25 -9 -25 -12 0 -23 29
-15 41 10 18 24 9 24 -16z"/>
<path d="M150 336 c0 -19 -3 -41 -6 -50 -4 -10 -1 -16 8 -16 10 0 15 14 17 50
1 30 -2 50 -9 50 -5 0 -10 -15 -10 -34z"/>
<path d="M208 363 c-7 -39 -2 -93 9 -93 16 0 18 86 3 95 -5 3 -11 3 -12 -2z"/>
<path d="M293 363 l-43 -4 0 -47 0 -47 45 0 45 0 0 53 c0 28 -1 51 -2 50 -2
-1 -22 -3 -45 -5z m14 -49 c3 -8 1 -20 -4 -25 -12 -12 -48 14 -39 29 10 17 36
15 43 -4z"/>
<path d="M420 355 c10 -12 10 -21 0 -45 -13 -32 -6 -85 11 -75 5 4 9 15 7 25
-2 10 11 33 27 50 27 29 28 32 8 26 -22 -7 -28 1 -24 27 0 4 -9 7 -20 7 -18 0
-19 -2 -9 -15z"/>
<path d="M2203 303 c-26 -10 -12 -20 27 -20 22 0 45 6 51 14 9 10 4 13 -27 12
-22 0 -45 -3 -51 -6z"/>
<path d="M60 257 c0 -19 57 -29 64 -10 3 7 0 13 -7 13 -7 0 -22 3 -34 6 -17 5
-23 2 -23 -9z"/>
<path d="M240 235 c0 -11 12 -15 50 -15 38 0 50 4 50 15 0 11 -12 15 -50 15
-38 0 -50 -4 -50 -15z"/>
<path d="M2859 226 c-5 -55 -3 -78 9 -93 10 -14 12 -8 12 39 0 31 -4 60 -10
63 -5 3 -11 -1 -11 -9z"/>
<path d="M2950 200 c0 -12 38 -90 45 -90 7 0 -26 90 -36 96 -5 3 -9 0 -9 -6z"/>
<path d="M2407 93 c6 -105 11 -115 12 -23 0 41 -3 81 -8 88 -4 8 -6 -21 -4
-65z"/>
<path d="M15 111 c10 -20 15 -49 13 -72 -4 -42 6 -53 16 -16 11 42 6 68 -20
95 l-26 27 17 -34z"/>
<path d="M2255 93 c30 -33 31 -41 8 -50 -18 -7 -33 -22 -33 -35 0 -3 12 -3 28
1 18 5 26 13 24 25 -2 11 1 15 7 11 26 -15 8 36 -18 54 -40 29 -47 26 -16 -6z"/>
</g>
</svg>
